<?xml version="1.0" encoding="UTF-8" standalone="no"?>
<!DOCTYPE svg PUBLIC "-//W3C//DTD SVG 1.1//EN" "http://www.w3.org/Graphics/SVG/1.1/DTD/svg11.dtd">
<!-- Creator: fig2dev Version 3.2 Patchlevel 5e -->
<!-- CreationDate: Fri Sep  4 14:12:57 2015 -->
<!-- Magnification: 1.050 -->
<svg xmlns="http://www.w3.org/2000/svg" xmlns:xlink="http://www.w3.org/1999/xlink" width="6.5in" height="4.2in" viewBox="507 784 7820 5086">
<g style="stroke-width:.025in; fill:none">
<!-- Line -->
<!--  polyline  -->
<polyline points="1888,3325 4234,3325 " style="stroke:#000000;stroke-width:8; stroke-linejoin:round; stroke-linecap:butt; stroke-dasharray:62 31 10 31;"/>
<!-- Arrowhead on XXXpoint 1888 3325 - 4267 3325-->
<polyline points="4095 3373 4253 3325 4095 3278 " style="stroke:#000000;stroke-width:8;stroke-miterlimit:8; "/>
<!-- Line -->
<!--  polyline  -->
<polyline points="5904,3325 8248,3325 " style="stroke:#000000;stroke-width:8; stroke-linejoin:round; stroke-linecap:butt; stroke-dasharray:62 31 10 31;"/>
<!-- Arrowhead on XXXpoint 5904 3325 - 8282 3325-->
<polyline points="8110 3373 8267 3325 8110 3278 " style="stroke:#000000;stroke-width:8;stroke-miterlimit:8; "/>
<!-- Line -->
<!--  polyline  -->
<polyline points="1888,3325 1888,980 " style="stroke:#000000;stroke-width:8; stroke-linejoin:round; stroke-linecap:butt; stroke-dasharray:62 31 10 31;"/>
<!-- Arrowhead on XXXpoint 1888 3325 - 1888 948-->
<polyline points="1935 1120 1888 962 1841 1120 " style="stroke:#000000;stroke-width:8;stroke-miterlimit:8; "/>
<!-- Line -->
<!--  polyline  -->
<polyline points="5904,3325 5904,980 " style="stroke:#000000;stroke-width:8; stroke-linejoin:round; stroke-linecap:butt; stroke-dasharray:62 31 10 31;"/>
<!-- Arrowhead on XXXpoint 5904 3325 - 5904 948-->
<polyline points="5951 1120 5904 962 5857 1120 " style="stroke:#000000;stroke-width:8;stroke-miterlimit:8; "/>
<!-- Line -->
<!--  polyline  -->
<polyline points="2833,3325 2833,3296 2833,3264 2828,3235 2825,3207 2825,3179 2814,3150 2810,3118 2806,3088 2795,3060 2786,3033 2776,3003 2767,2976 2759,2952 2743,2923 2729,2895 2716,2871 2701,2844 2687,2819 2668,2796 2655,2767 2636,2744 2617,2725 2597,2702 2578,2678 2554,2660 2536,2636 2512,2617 2489,2597 2470,2578 2447,2559 2417,2545 2394,2527 2370,2513 2343,2498 2319,2485 2290,2471 2262,2455 2238,2447 2211,2437 2181,2428 2154,2418 2125,2408 2096,2404 2064,2399 2035,2389 2007,2389 1979,2386 1950,2381 1918,2381 1888,2381 1860,2381 1827,2381 1799,2386 1771,2389 1742,2389 1714,2399 1680,2404 1652,2408 1625,2418 1595,2428 1567,2437 1540,2447 1516,2455 1487,2471 1459,2485 1436,2498 1406,2513 1383,2527 1359,2545 1332,2559 1308,2578 1289,2597 1266,2617 1241,2636 1223,2660 1199,2678 1181,2702 1162,2725 1143,2744 1123,2767 1109,2796 1090,2819 1077,2844 1062,2871 1047,2895 1034,2923 1019,2952 1011,2976 1000,3003 992,3033 981,3060 973,3088 967,3118 962,3150 954,3179 954,3207 949,3235 943,3264 943,3296 943,3325 943,3354 943,3386 949,3415 954,3443 954,3471 962,3500 967,3533 973,3562 981,3589 992,3618 1000,3647 1011,3674 1019,3698 1034,3727 1047,3755 1062,3778 1077,3807 1090,3830 1109,3855 1123,3882 1143,3906 1162,3925 1181,3948 1199,3972 1223,3991 1241,4014 1266,4033 1289,4052 1308,4071 1332,4091 1359,4104 1383,4123 1406,4137 1436,4152 1459,4166 1487,4180 1516,4195 1540,4203 1567,4214 1595,4222 1625,4233 1652,4241 1680,4246 1714,4251 1742,4260 1771,4260 1799,4265 1827,4270 1860,4270 1888,4270 1918,4270 1950,4270 1979,4265 2007,4260 2035,4260 2064,4251 2096,4246 2125,4241 2154,4233 2181,4222 2211,4214 2238,4203 2262,4195 2290,4180 2319,4166 2343,4152 2370,4137 2394,4123 2417,4104 2447,4091 2470,4071 2489,4052 2512,4033 2536,4014 2554,3991 2578,3972 2597,3948 2617,3925 2636,3906 2655,3882 2668,3855 2687,3830 2701,3807 2716,3778 2729,3755 2743,3727 2759,3698 2767,3674 2776,3647 2786,3618 2795,3589 2806,3562 2810,3533 2814,3500 2825,3471 2825,3443 2828,3415 2833,3386 2833,3354 2833,3325 " style="stroke:#ff0000;stroke-width:32; stroke-linejoin:round; stroke-linecap:butt; "/>
<!-- Line -->
<!--  polyline  -->
<polyline points="6849,3325 6849,3296 6849,3264 6844,3235 6840,3207 6840,3179 6830,3150 6826,3118 6822,3088 6811,3060 6802,3033 6792,3003 6783,2976 6774,2952 6759,2923 6745,2895 6731,2871 6717,2844 6703,2819 6684,2796 6670,2767 6651,2744 6633,2725 6613,2702 6594,2678 6570,2660 6552,2636 6528,2617 6504,2597 6486,2578 6462,2559 6433,2545 6410,2527 6386,2513 6359,2498 6334,2485 6306,2471 6278,2455 6254,2447 6226,2437 6197,2428 6170,2418 6141,2408 6112,2404 6079,2399 6051,2389 6023,2389 5994,2386 5966,2381 5933,2381 5904,2381 5876,2381 5843,2381 5815,2386 5786,2389 5758,2389 5730,2399 5696,2404 5668,2408 5640,2418 5611,2428 5583,2437 5555,2447 5531,2455 5503,2471 5475,2485 5451,2498 5422,2513 5399,2527 5375,2545 5348,2559 5323,2578 5304,2597 5281,2617 5257,2636 5238,2660 5215,2678 5196,2702 5177,2725 5159,2744 5139,2767 5125,2796 5106,2819 5092,2844 5078,2871 5063,2895 5049,2923 5035,2952 5026,2976 5016,3003 5007,3033 4997,3060 4988,3088 4983,3118 4978,3150 4970,3179 4970,3207 4964,3235 4959,3264 4959,3296 4959,3325 4959,3354 4959,3386 4964,3415 4970,3443 4970,3471 4978,3500 4983,3533 4988,3562 4997,3589 5007,3618 5016,3647 5026,3674 5035,3698 5049,3727 5063,3755 5078,3778 5092,3807 5106,3830 5125,3855 5139,3882 5159,3906 5177,3925 5196,3948 5215,3972 5238,3991 5257,4014 5281,4033 5304,4052 5323,4071 5348,4091 5375,4104 5399,4123 5422,4137 5451,4152 5475,4166 5503,4180 5531,4195 5555,4203 5583,4214 5611,4222 5640,4233 5668,4241 5696,4246 5730,4251 5758,4260 5786,4260 5815,4265 5843,4270 5876,4270 5904,4270 5933,4270 5966,4270 5994,4265 6023,4260 6051,4260 6079,4251 6112,4246 6141,4241 6170,4233 6197,4222 6226,4214 6254,4203 6278,4195 6306,4180 6334,4166 6359,4152 6386,4137 6410,4123 6433,4104 6462,4091 6486,4071 6504,4052 6528,4033 6552,4014 6570,3991 6594,3972 6613,3948 6633,3925 6651,3906 6670,3882 6684,3855 6703,3830 6717,3807 6731,3778 6745,3755 6759,3727 6774,3698 6783,3674 6792,3647 6802,3618 6811,3589 6822,3562 6826,3533 6830,3500 6840,3471 6840,3443 6844,3415 6849,3386 6849,3354 6849,3325 " style="stroke:#ff0000;stroke-width:32; stroke-linejoin:round; stroke-linecap:butt; "/>
<!-- Line -->
<!--  spline  -->
<polyline points="1926,3325 1926,3324 1925,3321 1925,3317 1924,3314 1924,3313 1924,3311 1923,3309 1922,3306 1920,3302 1918,3299 1917,3298 1916,3297 1914,3296 1911,3294 1908,3292 1907,3292 1906,3291 1905,3291 1901,3290 1897,3289 1893,3288 1890,3288 1888,3288 1887,3288 1885,3289 1880,3289 1878,3290 1877,3290 1875,3290 1872,3291 1869,3292 1866,3294 1863,3296 1862,3297 1862,3298 1861,3299 1859,3302 1857,3306 1856,3307 1855,3308 1854,3309 1853,3313 1851,3317 1851,3320 1851,3323 1851,3325 1851,3327 1851,3329 1853,3334 1853,3336 1853,3337 1854,3339 1855,3341 1857,3344 1859,3348 1861,3351 1862,3352 1863,3353 1866,3355 1869,3357 1870,3358 1871,3359 1872,3360 1877,3361 1881,3362 1884,3362 1886,3362 1888,3362 1889,3362 1892,3362 1897,3361 1900,3361 1901,3361 1903,3360 1905,3359 1908,3357 1911,3355 1914,3353 1916,3352 1917,3352 1918,3351 1920,3348 1922,3344 1922,3343 1923,3342 1923,3341 1924,3337 1925,3333 1926,3330 1926,3328 1926,3325 " style="stroke:#cc0000;stroke-width:16; stroke-linejoin:bevel; stroke-linecap:butt; "/>
<!-- Line -->
<!--  spline  -->
<polyline points="5942,3325 5942,3324 5941,3321 5941,3317 5940,3314 5940,3313 5940,3311 5939,3309 5938,3306 5935,3302 5933,3299 5932,3298 5931,3297 5930,3296 5927,3294 5924,3292 5923,3292 5922,3291 5921,3291 5917,3290 5912,3289 5909,3288 5906,3288 5904,3288 5903,3288 5901,3289 5896,3289 5893,3290 5892,3290 5890,3290 5888,3291 5885,3292 5882,3294 5879,3296 5878,3297 5878,3298 5877,3299 5875,3302 5872,3306 5871,3307 5870,3308 5869,3309 5868,3313 5867,3317 5867,3320 5867,3323 5867,3325 5867,3327 5867,3329 5868,3334 5868,3336 5868,3337 5869,3339 5870,3341 5872,3344 5875,3348 5877,3351 5878,3352 5879,3353 5882,3355 5885,3357 5886,3358 5887,3359 5888,3360 5892,3361 5897,3362 5900,3362 5902,3362 5904,3362 5905,3362 5908,3362 5912,3361 5916,3361 5917,3361 5919,3360 5921,3359 5924,3357 5927,3355 5930,3353 5931,3352 5932,3352 5933,3351 5935,3348 5938,3344 5938,3343 5939,3342 5939,3341 5940,3337 5941,3333 5942,3330 5942,3328 5942,3325 " style="stroke:#cc0000;stroke-width:16; stroke-linejoin:bevel; stroke-linecap:butt; "/>
<!-- Line -->
<!--  polyline  -->
<polyline points="6377,5843 6377,5781 6377,5720 6377,5654 6377,5592 6377,5531 6377,5465 6377,5403 6377,5342 6377,5276 6377,5214 6377,5153 6377,5087 6377,5025 6377,4964 6377,4898 6377,4836 6377,4775 6377,4709 6377,4648 6377,4586 6377,4520 6377,4459 6377,4397 6377,4331 6377,4270 6377,4208 6377,4142 6377,4081 6377,4019 6377,3953 6377,3892 6377,3830 6377,3764 6377,3703 6377,3641 6377,3575 6377,3514 6377,3453 6377,3386 6377,3325 6377,3264 6377,3197 6377,3137 6377,3075 6377,3008 6377,2948 6377,2886 6377,2819 6377,2759 6377,2697 6377,2630 6377,2570 6377,2508 6377,2441 6377,2381 6377,2319 6377,2253 6377,2192 6377,2130 6377,2064 6377,2003 6377,1941 6377,1875 6377,1814 6377,1752 6377,1686 6377,1625 6377,1563 6377,1497 6377,1436 6377,1375 6377,1308 6377,1247 6377,1186 6377,1119 6377,1058 6377,997 6377,930 6377,869 6377,807 " style="stroke:#00d100;stroke-width:16; stroke-linejoin:round; stroke-linecap:butt; "/>
<!-- Line -->
<!--  polyline  -->
<polyline points="2551,3797 2551,3770 2551,3736 2545,3708 2540,3679 2540,3651 2532,3623 2527,3589 2521,3562 2512,3533 2502,3504 2493,3477 2485,3448 2474,3424 2460,3397 2447,3367 2432,3344 2417,3315 2404,3292 2385,3269 2370,3240 2351,3216 2332,3197 2314,3173 2296,3150 2271,3131 2253,3107 2228,3088 2205,3070 2186,3051 2162,3033 2134,3018 2111,2999 2088,2985 2058,2971 2035,2956 2007,2942 1979,2929 1954,2918 1926,2910 1899,2899 1869,2891 1841,2881 1814,2876 1780,2871 1752,2862 1723,2862 1695,2857 1667,2852 1633,2852 1606,2852 1576,2852 1543,2852 1516,2857 1487,2862 1459,2862 1430,2871 1397,2876 1370,2881 1340,2891 1312,2899 1285,2910 1255,2918 1232,2929 1204,2942 1175,2956 1151,2971 1123,2985 1100,2999 1077,3018 1047,3033 1024,3051 1005,3070 981,3088 958,3107 939,3131 915,3150 896,3173 877,3197 858,3216 840,3240 826,3269 807,3292 792,3315 779,3344 764,3367 750,3397 737,3424 726,3448 718,3477 707,3504 699,3533 688,3562 684,3589 680,3623 669,3651 669,3679 665,3708 660,3736 660,3770 660,3797 660,3825 660,3860 665,3887 669,3916 669,3944 680,3972 684,4006 688,4033 699,4062 707,4091 718,4118 726,4148 737,4171 750,4199 764,4227 779,4251 792,4280 807,4303 826,4326 840,4355 858,4379 877,4397 896,4422 915,4445 939,4464 958,4488 981,4507 1005,4525 1024,4544 1047,4562 1077,4577 1100,4596 1123,4611 1151,4624 1175,4639 1204,4653 1232,4666 1255,4677 1285,4685 1312,4696 1340,4704 1370,4714 1397,4719 1430,4723 1459,4733 1487,4733 1516,4738 1543,4743 1576,4743 1606,4743 1633,4743 1667,4743 1695,4738 1723,4733 1752,4733 1780,4723 1814,4719 1841,4714 1869,4704 1899,4696 1926,4685 1954,4677 1979,4666 2007,4653 2035,4639 2058,4624 2088,4611 2111,4596 2134,4577 2162,4562 2186,4544 2205,4525 2228,4507 2253,4488 2271,4464 2296,4445 2314,4422 2332,4397 2351,4379 2370,4355 2385,4326 2404,4303 2417,4280 2432,4251 2447,4227 2460,4199 2474,4171 2485,4148 2493,4118 2502,4091 2512,4062 2521,4033 2527,4006 2532,3972 2540,3944 2540,3916 2545,3887 2551,3860 2551,3825 2551,3797 " style="stroke:#00d100;stroke-width:16; stroke-linejoin:round; stroke-linecap:butt; "/>
<!-- Line -->
<!--  polyline  -->
<polyline points="5904,3373 5904,3377 5904,3381 5904,3386 5904,3392 5909,3392 5909,3397 5909,3400 5909,3405 5909,3411 5909,3415 5909,3419 5909,3424 5909,3429 5909,3434 5909,3439 5914,3439 5914,3443 5914,3448 5914,3453 5914,3458 5914,3462 5914,3466 5914,3471 5918,3477 5918,3481 5918,3485 5918,3490 5918,3496 5918,3500 5923,3504 5923,3509 5923,3514 5923,3519 5923,3523 5928,3523 5928,3528 5928,3533 5928,3538 5928,3543 5933,3547 5933,3551 5933,3556 5933,3562 5938,3566 5938,3570 5938,3575 5938,3581 5942,3585 5942,3594 5942,3599 5947,3604 5947,3608 5952,3613 5952,3618 5952,3628 5956,3632 5956,3637 5961,3647 5961,3651 5966,3660 5970,3666 5970,3674 5975,3685 5980,3693 5985,3703 5989,3713 5994,3722 5999,3732 6004,3745 6008,3755 6018,3770 6023,3783 6032,3797 6041,3812 6051,3830 6060,3844 6074,3863 6085,3882 6103,3902 6117,3925 6136,3948 6159,3972 6183,3996 6212,4025 6244,4052 6282,4081 6325,4114 6377,4142 6433,4176 6504,4203 6585,4233 6679,4256 6788,4270 6915,4270 7057,4246 7213,4199 7374,4110 7534,3977 7667,3797 7761,3570 7794,3325 7761,3080 7667,2852 7534,2674 7374,2540 7213,2451 7057,2404 6915,2381 6788,2381 6679,2394 6585,2418 6504,2447 6433,2474 6377,2508 6325,2536 6282,2570 6244,2597 6212,2626 6183,2655 6159,2678 6136,2702 6117,2725 6103,2748 6085,2767 6074,2786 6060,2806 6051,2819 6041,2838 6032,2852 6023,2867 6018,2881 6008,2895 6004,2904 5999,2918 5994,2929 5989,2937 5985,2948 5980,2956 5975,2966 5970,2976 5970,2985 5966,2990 5961,2999 5961,3003 5956,3014 5956,3018 5952,3022 5952,3033 5952,3038 5947,3041 5947,3046 5942,3051 5942,3056 5942,3065 5938,3070 5938,3075 5938,3080 5938,3084 5933,3088 5933,3093 5933,3099 5933,3103 5928,3107 5928,3112 5928,3118 5928,3123 5928,3126 5923,3126 5923,3131 5923,3137 5923,3141 5923,3145 5918,3150 5918,3155 5918,3160 5918,3165 5918,3169 5918,3173 5914,3179 5914,3184 5914,3188 5914,3192 5914,3197 5914,3203 5914,3207 5914,3211 5909,3211 5909,3216 5909,3222 5909,3226 5909,3230 5909,3235 5909,3240 5909,3245 5909,3249 5909,3254 5909,3259 5904,3259 5904,3264 5904,3269 5904,3273 5904,3277 " style="stroke:#0000ff;stroke-width:16; stroke-linejoin:round; stroke-linecap:butt; "/>
<!-- Line -->
<!--  polyline  -->
<polyline points="2782,3963 2819,3948 2862,3934 2899,3916 2942,3897 2990,3874 3033,3849 3080,3821 3126,3793 3173,3755 3226,3717 3273,3674 3325,3628 3376,3570 3428,3514 3477,3448 3528,3377 3575,3296 3617,3211 3655,3118 3693,3014 3717,2904 3740,2786 3751,2660 3745,2527 3732,2386 3702,2243 3655,2101 3594,1960 3513,1818 3415,1686 3296,1567 3169,1460 3027,1364 2871,1289 2710,1232 2551,1194 2389,1181 2228,1181 2077,1199 1931,1232 1795,1274 1671,1332 1559,1397 1455,1468 1364,1544 1285,1619 1213,1700 1151,1780 1100,1856 1058,1937 1019,2011 986,2088 958,2158 939,2224 920,2290 911,2356 901,2418 891,2474 888,2532 888,2583 888,2636 888,2682 891,2729 896,2772 901,2814 907,2852 915,2891 920,2929 930,2961 939,2995 949,3027 958,3056 967,3084 977,3112 986,3141 1000,3165 1011,3188 1019,3211 1029,3235 1043,3259 1053,3277 1062,3301 1077,3320 1085,3339 1096,3354 1109,3373 1119,3392 1128,3405 1143,3424 1151,3439 1162,3453 1170,3466 1185,3481 1194,3496 1204,3509 1213,3519 1223,3533 1236,3547 1247,3556 1255,3570 1266,3581 1274,3589 1285,3599 1298,3613 1308,3623 1317,3632 1327,3641 1336,3651 1345,3660 1354,3671 1364,3679 1374,3689 1388,3693 1397,3703 1406,3713 1417,3722 1425,3727 1436,3736 1444,3745 1455,3751 1463,3759 1474,3764 1482,3774 1491,3778 1501,3788 1516,3793 1525,3802 1534,3807 1543,3812 1553,3821 1563,3825 1572,3830 1582,3840 1595,3844 1606,3849 1614,3855 1625,3863 1633,3868 1648,3874 1657,3878 1667,3882 1676,3892 1691,3897 1699,3902 1710,3906 1723,3910 1733,3916 1742,3921 1756,3925 1765,3929 1780,3934 1790,3940 1803,3944 1817,3948 1827,3953 1841,3959 1856,3963 1865,3967 1880,3972 1893,3977 1907,3982 1922,3986 1937,3986 1950,3991 1964,3996 1979,4001 1992,4006 2007,4006 2026,4010 2040,4014 2058,4014 2073,4019 2091,4025 2107,4025 2125,4029 2143,4029 2162,4033 2181,4033 2200,4038 2224,4038 2243,4038 2266,4038 2285,4038 2309,4044 2332,4044 2356,4038 2381,4038 2408,4038 2432,4038 2460,4033 2489,4029 2517,4029 2545,4025 2574,4019 2606,4010 2640,4006 2674,3996 2710,3986 2743,3977 2782,3963 " style="stroke:#0000ff;stroke-width:16; stroke-linejoin:round; stroke-linecap:butt; "/>
<!-- Line -->
<!--  polyline  -->
<polyline points="7322,5843 7322,5781 7322,5720 7322,5654 7322,5592 7322,5531 7322,5465 7322,5403 7322,5342 7322,5276 7322,5214 7322,5153 7322,5087 7322,5025 7322,4964 7322,4898 7322,4836 7322,4775 7322,4709 7322,4648 7322,4586 7322,4520 7322,4459 7322,4397 7322,4331 7322,4270 7322,4208 7322,4142 7322,4081 7322,4019 7322,3953 7322,3892 7322,3830 7322,3764 7322,3703 7322,3641 7322,3575 7322,3514 7322,3453 7322,3386 7322,3325 7322,3264 7322,3197 7322,3137 7322,3075 7322,3008 7322,2948 7322,2886 7322,2819 7322,2759 7322,2697 7322,2630 7322,2570 7322,2508 7322,2441 7322,2381 7322,2319 7322,2253 7322,2192 7322,2130 7322,2064 7322,2003 7322,1941 7322,1875 7322,1814 7322,1752 7322,1686 7322,1625 7322,1563 7322,1497 7322,1436 7322,1375 7322,1308 7322,1247 7322,1186 7322,1119 7322,1058 7322,997 7322,930 7322,869 7322,807 " style="stroke:#00d1d1;stroke-width:16; stroke-linejoin:round; stroke-linecap:butt; "/>
<!-- Line -->
<!--  polyline  -->
<polyline points="5909,3373 5909,3377 5909,3381 5909,3386 5909,3392 5914,3392 5914,3397 5914,3400 5914,3405 5914,3411 5918,3411 5918,3415 5918,3419 5918,3424 5923,3424 5923,3429 5923,3434 5923,3439 5928,3439 5928,3443 5928,3448 5933,3453 5933,3458 5933,3462 5938,3462 5938,3466 5942,3471 5942,3477 5947,3481 5947,3485 5952,3485 5952,3490 5952,3496 5956,3496 5956,3500 5961,3504 5961,3509 5966,3509 5966,3514 5970,3514 5970,3519 5975,3523 5980,3528 5980,3533 5985,3533 5985,3538 5989,3543 5994,3543 5994,3547 5999,3547 5999,3551 6004,3556 6008,3556 6008,3562 6013,3566 6018,3566 6023,3570 6027,3575 6032,3575 6037,3581 6041,3585 6046,3589 6051,3589 6056,3594 6060,3599 6070,3599 6074,3604 6079,3608 6089,3613 6098,3613 6103,3618 6112,3623 6122,3623 6131,3628 6141,3632 6150,3632 6164,3637 6174,3637 6188,3637 6197,3641 6212,3641 6226,3641 6240,3641 6254,3637 6274,3637 6287,3632 6306,3628 6325,3623 6339,3618 6359,3608 6377,3599 6396,3585 6415,3575 6443,3548 6448,3543 6462,3523 6481,3504 6490,3481 6504,3458 6514,3434 6523,3405 6528,3381 6533,3354 6533,3325 6533,3296 6528,3269 6523,3245 6514,3216 6504,3192 6490,3169 6481,3145 6462,3126 6448,3107 6429,3093 6415,3075 6396,3065 6377,3051 6359,3041 6339,3033 6325,3027 6306,3022 6287,3018 6274,3014 6254,3014 6240,3008 6226,3008 6212,3008 6197,3008 6188,3014 6174,3014 6164,3014 6150,3018 6141,3018 6131,3022 6122,3027 6112,3027 6103,3033 6098,3038 6089,3038 6079,3041 6074,3046 6070,3051 6060,3051 6056,3056 6051,3060 6046,3060 6041,3065 6037,3070 6032,3075 6027,3075 6023,3080 6018,3084 6013,3084 6008,3088 6008,3093 6004,3093 5999,3099 5999,3103 5994,3103 5994,3107 5989,3107 5985,3112 5985,3118 5980,3118 5980,3123 5975,3126 5970,3131 5970,3137 5966,3137 5966,3141 5961,3141 5961,3145 5956,3150 5956,3155 5952,3155 5952,3160 5952,3165 5947,3165 5947,3169 5942,3173 5942,3179 5938,3184 5938,3188 5933,3188 5933,3192 5933,3197 5928,3203 5928,3207 5928,3211 5923,3211 5923,3216 5923,3222 5923,3226 5918,3226 5918,3230 5918,3235 5918,3240 5914,3240 5914,3245 5914,3249 5914,3254 5914,3259 5909,3259 5909,3264 5909,3269 5909,3273 5909,3277 " style="stroke:#d100d1;stroke-width:16; stroke-linejoin:round; stroke-linecap:butt; "/>
<!-- Line: box -->
<rect x="519" y="803" width="7795" height="5055" rx="0" style="stroke:#ffffff;stroke-width:8; stroke-linejoin:miter; stroke-linecap:butt; "/>
<!-- Line -->
<polyline points="3118,3986 3118,3988 3117,4001 3116,4016 3114,4034 3112,4055 3109,4077 3106,4101 3101,4125 3096,4151 3087,4177 3078,4202 3066,4229 3053,4256 3036,4283 3015,4311 2990,4339 2961,4367 2929,4393 2893,4417 2856,4439 2818,4457 2782,4473 2746,4486 2709,4497 2675,4506 2640,4512 2605,4518 2572,4522 2539,4527 2508,4529 2477,4531 2450,4533 2426,4534 2405,4534 2388,4535 2379,4535 " style="stroke:#000000;stroke-width:8; stroke-linejoin:bevel; stroke-linecap:butt; "/>
<!-- Arrowhead on XXXpoint 2388 4535 - 2346 4535-->
<polyline points="2518 4488 2361 4535 2518 4582 " style="stroke:#000000;stroke-width:8;stroke-miterlimit:8; "/>
<!-- Arrowhead on XXXpoint 3118 3988 - 3118 3952-->
<polyline points="3165 4124 3118 3967 3070 4124 " style="stroke:#000000;stroke-width:8;stroke-miterlimit:8; "/>
<!-- Line -->
<polyline points="6454,1885 6471,1885 6490,1886 6512,1887 6537,1889 6562,1892 6588,1898 6616,1904 6643,1912 6670,1925 6700,1940 6728,1960 6755,1984 6780,2011 6799,2039 6815,2068 6828,2095 6836,2122 6844,2149 6848,2175 6852,2200 6854,2224 6855,2246 6856,2265 6856,2282 " style="stroke:#000000;stroke-width:8; stroke-linejoin:bevel; stroke-linecap:butt; "/>
<!-- Arrowhead on XXXpoint 6856 2265 - 6856 2316-->
<polyline points="6809 2143 6856 2301 6903 2143 " style="stroke:#000000;stroke-width:8;stroke-miterlimit:8; "/>
<!-- Arrowhead on XXXpoint 6471 1885 - 6420 1885-->
<polyline points="6593 1838 6435 1885 6593 1932 " style="stroke:#000000;stroke-width:8;stroke-miterlimit:8; "/>
<!-- Line -->
<polyline points="6498,3619 6504,3623 6517,3629 6532,3637 6551,3647 6571,3657 6593,3669 6616,3680 6641,3692 6667,3703 6695,3715 6723,3727 6754,3737 6787,3749 6822,3759 6859,3770 6897,3779 6939,3787 6978,3794 7013,3798 7045,3801 7074,3802 7100,3802 7124,3801 7146,3800 7167,3798 7186,3795 7203,3793 7217,3790 7229,3787 7232,3785 " style="stroke:#000000;stroke-width:8; stroke-linejoin:bevel; stroke-linecap:butt; "/>
<!-- Arrowhead on XXXpoint 7229 3787 - 7264 3779-->
<polyline points="7106 3865 7249 3782 7084 3773 " style="stroke:#000000;stroke-width:8;stroke-miterlimit:8; "/>
<!-- Arrowhead on XXXpoint 6504 3623 - 6469 3603-->
<polyline points="6641 3645 6481 3610 6595 3728 " style="stroke:#000000;stroke-width:8;stroke-miterlimit:8; "/>
</g>
</svg>