<?xml version="1.0" encoding="UTF-8" standalone="no"?>
<!-- Created with Inkscape (http://www.inkscape.org/) -->
<svg xmlns:dc="http://purl.org/dc/elements/1.1/" xmlns:cc="http://creativecommons.org/ns#" xmlns:rdf="http://www.w3.org/1999/02/22-rdf-syntax-ns#" xmlns:svg="http://www.w3.org/2000/svg" xmlns="http://www.w3.org/2000/svg" xmlns:sodipodi="http://sodipodi.sourceforge.net/DTD/sodipodi-0.dtd" xmlns:inkscape="http://www.inkscape.org/namespaces/inkscape" id="svg2403" sodipodi:version="0.32" inkscape:version="0.46" width="458.77499" height="457.87515" xml:space="preserve" sodipodi:docname="SterProKreiTreu.svg" version="1.0" inkscape:output_extension="org.inkscape.output.svg.inkscape"><metadata id="metadata2408"><rdf:RDF><cc:Work rdf:about=""><dc:format>image/svg+xml</dc:format><dc:type rdf:resource="http://purl.org/dc/dcmitype/StillImage"/></cc:Work></rdf:RDF></metadata><defs id="defs2406"><inkscape:perspective sodipodi:type="inkscape:persp3d" inkscape:vp_x="0 : 526.18109 : 1" inkscape:vp_y="0 : 1000 : 0" inkscape:vp_z="744.09448 : 526.18109 : 1" inkscape:persp3d-origin="372.04724 : 350.78739 : 1" id="perspective2410"/></defs><sodipodi:namedview inkscape:window-height="952" inkscape:window-width="1280" inkscape:pageshadow="2" inkscape:pageopacity="0.0" guidetolerance="10.0" gridtolerance="10.0" objecttolerance="10.0" borderopacity="1.0" bordercolor="#666666" pagecolor="#ffffff" id="base" showgrid="false" inkscape:zoom="1.6139771" inkscape:cx="229.3875" inkscape:cy="228.93758" inkscape:window-x="-4" inkscape:window-y="-4" inkscape:current-layer="g2412"/><g id="g2412" inkscape:groupmode="layer" inkscape:label="SterProKreiTreu" transform="matrix(1.25,0,0,-1.25,-154.125,474.8535)"><g id="g2414" transform="scale(0.12,0.12)"><g id="g2416"><path d="M 3393,1454.19 L 3391,1528.19 L 3384,1602.19 L 3372,1675.19 L 3356,1748.19 L 3335,1819.19 L 3310,1889.19 L 3280,1957.19 L 3247,2023.19 L 3209,2087.19 L 3167,2148.19 L 3122,2207.19 L 3073,2262.19 L 3020,2315.19 L 2965,2364.19 L 2906,2409.19 L 2845,2451.19 L 2781,2489.19 L 2715,2522.19 L 2647,2552.19 L 2577,2577.19 L 2506,2598.19 L 2433,2614.19 L 2360,2626.19 L 2286,2632.19 L 2212,2635.19 L 2138,2632.19 L 2064,2626.19 L 1991,2614.19 L 1918,2598.19 L 1847,2577.19 L 1777,2552.19 L 1709,2522.19 L 1643,2489.19 L 1579,2451.19 L 1518,2409.19 L 1459,2364.19 L 1404,2315.19 L 1351,2262.19 L 1302,2207.19 L 1257,2148.19 L 1215,2087.19 L 1177,2023.19 L 1143,1957.19 L 1114,1889.19 L 1089,1819.19 L 1068,1748.19 L 1052,1675.19 L 1040,1602.19 L 1033,1528.19 L 1031,1454.19 L 1033,1380.19 L 1040,1306.19 L 1052,1233.19 L 1068,1160.19 L 1089,1089.19 L 1114,1019.19 L 1143,951.189 L 1177,885.189 L 1215,821.189 L 1257,760.189 L 1302,701.189 L 1351,645.189 L 1404,593.189 L 1459,544.189 L 1518,498.189 L 1579,457.189 L 1643,419.189 L 1709,385.189 L 1777,356.189 L 1847,331.189 L 1918,310.189 L 1991,294.189 L 2064,282.189 L 2138,275.189 L 2212,273.189 L 2286,275.189 L 2360,282.189 L 2433,294.189 L 2506,310.189 L 2577,331.189 L 2647,356.189 L 2715,385.189 L 2781,419.189 L 2845,457.189 L 2906,498.189 L 2965,544.189 L 3020,593.189 L 3073,645.189 L 3122,701.189 L 3167,760.189 L 3209,821.189 L 3247,885.189 L 3280,951.189 L 3310,1019.19 L 3335,1089.19 L 3356,1160.19 L 3372,1233.19 L 3384,1306.19 L 3391,1380.19 L 3393,1454.19" style="fill:none;stroke:#000000;stroke-width:7;stroke-linecap:round;stroke-linejoin:round;stroke-miterlimit:10;stroke-dasharray:none;stroke-opacity:1" id="path2418"/><path d="M 2212,273.189 L 2212,432.189 M 2212,468.189 L 2212,474.189 M 2212,509.189 L 2212,651.189 M 2212,686.189 L 2212,692.189 M 2212,728.189 L 2212,869.189 M 2212,905.189 L 2212,911.189 M 2212,946.189 L 2212,1088.19 M 2212,1123.19 L 2212,1129.19 M 2212,1165.19 L 2212,1306.19 M 2212,1342.19 L 2212,1348.19 M 2212,1383.19 L 2212,1525.19 M 2212,1560.19 L 2212,1566.19 M 2212,1601.19 L 2212,1743.19 M 2212,1779.19 L 2212,1785.19 M 2212,1820.19 L 2212,1962.19 M 2212,1997.19 L 2212,2003.19 M 2212,2038.19 L 2212,2180.19 M 2212,2216.19 L 2212,2221.19 M 2212,2257.19 L 2212,2399.19 M 2212,2434.19 L 2212,2440.19" style="fill:none;stroke:#000000;stroke-width:3;stroke-linecap:round;stroke-linejoin:round;stroke-miterlimit:10;stroke-dasharray:none;stroke-opacity:1" id="path2420"/><path d="M 2212,2475.19 L 2212,2635.19" style="fill:none;stroke:#000000;stroke-width:3;stroke-linecap:round;stroke-linejoin:round;stroke-miterlimit:10;stroke-dasharray:none;stroke-opacity:1" id="path2422"/><path d="M 1983,2612.19 L 3330,1835.19" style="fill:none;stroke:#000000;stroke-width:7;stroke-linecap:round;stroke-linejoin:round;stroke-miterlimit:10;stroke-dasharray:none;stroke-opacity:1" id="path2424"/><path d="M 1929,3164.19 L 2212,273.189 L 3938,2684.19" style="fill:none;stroke:#000000;stroke-width:3;stroke-linecap:round;stroke-linejoin:round;stroke-miterlimit:10;stroke-dasharray:none;stroke-opacity:1" id="path2426"/><path d="M 2018,2612.19 L 2016,2623.19 L 2011,2633.19 L 2004,2641.19 L 1994,2646.19 L 1983,2648.19 L 1972,2646.19 L 1962,2641.19 L 1954,2633.19 L 1949,2623.19 L 1947,2612.19 L 1949,2601.19 L 1954,2592.19 L 1962,2584.19 L 1972,2579.19 L 1983,2577.19 L 1994,2579.19 L 2004,2584.19 L 2011,2592.19 L 2016,2601.19 L 2018,2612.19" style="fill:none;stroke:#000000;stroke-width:1;stroke-linecap:round;stroke-linejoin:round;stroke-miterlimit:10;stroke-dasharray:none;stroke-opacity:1" id="path2428"/><path d="M 2247,273.189 L 2246,284.189 L 2241,294.189 L 2233,302.189 L 2223,307.189 L 2212,308.189 L 2201,307.189 L 2191,302.189 L 2183,294.189 L 2178,284.189 L 2176,273.189 L 2178,262.189 L 2183,252.189 L 2191,244.189 L 2201,239.189 L 2212,237.189 L 2223,239.189 L 2233,244.189 L 2241,252.189 L 2246,262.189 L 2247,273.189" style="fill:none;stroke:#000000;stroke-width:1;stroke-linecap:round;stroke-linejoin:round;stroke-miterlimit:10;stroke-dasharray:none;stroke-opacity:1" id="path2430"/><path d="M 3365,1835.19 L 3363,1846.19 L 3358,1855.19 L 3351,1863.19 L 3341,1868.19 L 3330,1870.19 L 3319,1868.19 L 3309,1863.19 L 3301,1855.19 L 3296,1846.19 L 3294,1835.19 L 3296,1824.19 L 3301,1814.19 L 3309,1806.19 L 3319,1801.19 L 3330,1799.19 L 3341,1801.19 L 3351,1806.19 L 3358,1814.19 L 3363,1824.19 L 3365,1835.19" style="fill:none;stroke:#000000;stroke-width:1;stroke-linecap:round;stroke-linejoin:round;stroke-miterlimit:10;stroke-dasharray:none;stroke-opacity:1" id="path2432"/><path d="M 2212,273.189 L 2236,377.189 M 2244,412.189 L 2245,418.189 M 2253,452.189 L 2284,591.189 M 2292,625.189 L 2293,631.189 M 2301,665.189 L 2333,804.189 M 2341,838.189 L 2342,844.189 M 2350,878.189 L 2381,1017.19 M 2389,1051.19 L 2391,1057.19 M 2398,1091.19 L 2430,1230.19 M 2438,1264.19 L 2439,1270.19 M 2447,1304.19 L 2478,1443.19 M 2486,1477.19 L 2488,1483.19 M 2495,1517.19 L 2527,1656.19 M 2535,1690.19 L 2536,1696.19 M 2544,1730.19 L 2575,1869.19 M 2583,1903.19 L 2585,1909.19 M 2592,1943.19 L 2624,2082.19 M 2632,2116.19 L 2633,2122.19 M 2641,2156.19 L 2672,2295.19 M 2680,2329.19 L 2682,2335.19 M 2690,2370.19 L 2721,2508.19 M 2729,2542.19 L 2730,2548.19" style="fill:none;stroke:#000000;stroke-width:3;stroke-linecap:round;stroke-linejoin:round;stroke-miterlimit:10;stroke-dasharray:none;stroke-opacity:1" id="path2434"/><path d="M 2738,2583.19 L 2762,2687.19" style="fill:none;stroke:#000000;stroke-width:3;stroke-linecap:round;stroke-linejoin:round;stroke-miterlimit:10;stroke-dasharray:none;stroke-opacity:1" id="path2436"/><path d="M 2218,196.189 L 2188,196.189 L 2189,196.189 L 2192,195.189 L 2199,195.189 L 2201,194.189 L 2203,193.189 L 2205,191.189 L 2207,189.189 L 2207,189.189 L 2208,187.189 L 2209,184.189 L 2210,182.189 L 2210,175.189 L 2209,172.189 L 2208,170.189 L 2207,168.189 L 2205,166.189 L 2205,166.189 L 2203,165.189 L 2201,164.189 L 2199,163.189 L 2197,163.189 L 2194,162.189 L 2164,162.189 L 2216,161.189 L 2218,163.189 L 2219,165.189 L 2220,167.189 L 2221,169.189 L 2222,172.189 L 2222,174.189 L 2223,177.189 L 2223,182.189 L 2222,185.189 L 2222,188.189 L 2221,190.189 L 2220,192.189 L 2219,194.189" style="fill:#000000;fill-opacity:1;fill-rule:evenodd;stroke:none" id="path2438"/><path d="M 2186,207.189 L 2151,207.189 L 2151,113.189 L 2164,113.189 L 2164,151.189 L 2196,151.189 L 2199,152.189 L 2201,152.189 L 2204,153.189 L 2206,154.189 L 2208,155.189 L 2210,156.189 L 2212,157.189 L 2214,158.189 L 2215,159.189 L 2216,161.189 L 2164,162.189 L 2164,196.189 L 2218,196.189 L 2216,198.189 L 2214,200.189 L 2212,201.189 L 2211,202.189 L 2208,203.189 L 2206,204.189 L 2204,205.189 L 2201,206.189 L 2193,206.189 L 2190,207.189" style="fill:#000000;fill-opacity:1;fill-rule:evenodd;stroke:none" id="path2440"/><path d="M 2303,207.189 L 2236,207.189 L 2236,196.189 L 2288,196.189 L 2287,194.189 L 2286,193.189 L 2284,191.189 L 2282,189.189 L 2280,187.189 L 2279,184.189 L 2231,124.189 L 2231,113.189 L 2305,113.189 L 2305,124.189 L 2245,124.189 L 2251,130.189 L 2303,196.189" style="fill:#000000;fill-opacity:1;fill-rule:evenodd;stroke:none" id="path2442"/><path d="M 1115,2754.19 L 1085,2753.19 L 1095,2753.19 L 1097,2752.19 L 1099,2752.19 L 1101,2751.19 L 1103,2749.19 L 1105,2747.19 L 1105,2747.19 L 1106,2744.19 L 1107,2742.19 L 1107,2740.19 L 1108,2737.19 L 1107,2735.19 L 1107,2733.19 L 1106,2730.19 L 1105,2728.19 L 1104,2726.19 L 1102,2724.19 L 1102,2724.19 L 1101,2723.19 L 1099,2722.19 L 1097,2721.19 L 1094,2721.19 L 1092,2720.19 L 1061,2720.19 L 1114,2718.19 L 1115,2720.19 L 1117,2722.19 L 1118,2725.19 L 1119,2727.19 L 1119,2729.19 L 1120,2732.19 L 1120,2743.19 L 1119,2745.19 L 1118,2748.19 L 1117,2750.19 L 1117,2752.19" style="fill:#000000;fill-opacity:1;fill-rule:evenodd;stroke:none" id="path2444"/><path d="M 1084,2764.19 L 1049,2764.19 L 1049,2671.19 L 1061,2671.19 L 1061,2709.19 L 1096,2709.19 L 1099,2710.19 L 1102,2711.19 L 1104,2711.19 L 1106,2712.19 L 1108,2713.19 L 1110,2714.19 L 1111,2716.19 L 1113,2717.19 L 1114,2718.19 L 1061,2720.19 L 1061,2753.19 L 1085,2753.19 L 1115,2754.19 L 1114,2756.19 L 1112,2758.19 L 1110,2759.19 L 1108,2760.19 L 1106,2761.19 L 1104,2762.19 L 1101,2763.19 L 1098,2763.19 L 1097,2764.19 L 1087,2764.19" style="fill:#000000;fill-opacity:1;fill-rule:evenodd;stroke:none" id="path2446"/><path d="M 1145,2738.19 L 1135,2738.19 L 1135,2671.19 L 1147,2671.19 L 1147,2715.19 L 1148,2717.19 L 1149,2720.19 L 1149,2720.19 L 1150,2722.19 L 1151,2724.19 L 1153,2726.19 L 1155,2727.19 L 1157,2728.19 L 1160,2728.19 L 1145,2728.19" style="fill:#000000;fill-opacity:1;fill-rule:evenodd;stroke:none" id="path2448"/><path d="M 1160,2740.19 L 1158,2740.19 L 1155,2739.19 L 1153,2738.19 L 1152,2737.19 L 1150,2735.19 L 1149,2733.19 L 1147,2731.19 L 1145,2728.19 L 1163,2728.19 L 1166,2727.19 L 1168,2726.19 L 1172,2736.19 L 1170,2738.19 L 1167,2739.19 L 1165,2739.19 L 1163,2740.19" style="fill:#000000;fill-opacity:1;fill-rule:evenodd;stroke:none" id="path2450"/><path d="M 1184,2731.19 L 1182,2729.19 L 1181,2727.19 L 1180,2725.19 L 1178,2723.19 L 1178,2721.19 L 1177,2718.19 L 1176,2716.19 L 1176,2713.19 L 1175,2710.19 L 1175,2698.19 L 1176,2695.19 L 1176,2693.19 L 1177,2690.19 L 1178,2688.19 L 1179,2686.19 L 1180,2684.19 L 1181,2682.19 L 1182,2680.19 L 1184,2678.19 L 1207,2678.19 L 1206,2679.19 L 1201,2679.19 L 1198,2680.19 L 1196,2682.19 L 1194,2683.19 L 1192,2685.19 L 1192,2685.19 L 1191,2687.19 L 1190,2689.19 L 1189,2691.19 L 1188,2693.19 L 1188,2696.19 L 1187,2699.19 L 1187,2711.19 L 1188,2714.19 L 1188,2716.19 L 1189,2718.19 L 1190,2720.19 L 1191,2722.19 L 1192,2724.19 L 1193,2725.19 L 1195,2727.19 L 1197,2728.19 L 1199,2729.19 L 1202,2730.19 L 1207,2730.19" style="fill:#000000;fill-opacity:1;fill-rule:evenodd;stroke:none" id="path2452"/><path d="M 1207,2740.19 L 1201,2740.19 L 1199,2739.19 L 1196,2739.19 L 1194,2738.19 L 1192,2737.19 L 1190,2735.19 L 1187,2734.19 L 1185,2732.19 L 1185,2732.19 L 1184,2731.19 L 1207,2730.19 L 1213,2730.19 L 1215,2729.19 L 1217,2727.19 L 1219,2726.19 L 1221,2724.19 L 1222,2722.19 L 1224,2720.19 L 1225,2718.19 L 1225,2716.19 L 1226,2714.19 L 1226,2711.19 L 1227,2708.19 L 1227,2701.19 L 1226,2698.19 L 1226,2695.19 L 1225,2693.19 L 1224,2691.19 L 1224,2689.19 L 1222,2687.19 L 1221,2685.19 L 1220,2684.19 L 1218,2682.19 L 1216,2681.19 L 1214,2680.19 L 1212,2679.19 L 1209,2679.19 L 1207,2678.19 L 1184,2678.19 L 1184,2678.19 L 1186,2676.19 L 1188,2675.19 L 1190,2673.19 L 1192,2672.19 L 1194,2671.19 L 1196,2670.19 L 1199,2670.19 L 1201,2669.19 L 1211,2669.19 L 1214,2670.19 L 1216,2670.19 L 1219,2671.19 L 1221,2672.19 L 1223,2673.19 L 1224,2674.19 L 1226,2675.19 L 1228,2677.19 L 1230,2679.19 L 1232,2681.19 L 1233,2683.19 L 1235,2685.19 L 1235,2685.19 L 1236,2687.19 L 1237,2689.19 L 1237,2692.19 L 1238,2694.19 L 1238,2699.19 L 1239,2702.19 L 1239,2708.19 L 1238,2711.19 L 1238,2716.19 L 1237,2719.19 L 1236,2721.19 L 1235,2723.19 L 1234,2725.19 L 1233,2727.19 L 1231,2729.19 L 1230,2731.19 L 1228,2733.19 L 1226,2734.19 L 1224,2736.19 L 1222,2737.19 L 1220,2738.19 L 1217,2739.19 L 1215,2739.19 L 1212,2740.19 L 1210,2740.19" style="fill:#000000;fill-opacity:1;fill-rule:evenodd;stroke:none" id="path2454"/><path d="M 1240,2654.19 L 1238,2644.19 L 1239,2644.19 L 1241,2643.19 L 1251,2643.19 L 1253,2644.19 L 1255,2645.19 L 1257,2646.19 L 1259,2648.19 L 1260,2649.19 L 1261,2651.19 L 1262,2653.19 L 1245,2653.19 L 1243,2653.19" style="fill:#000000;fill-opacity:1;fill-rule:evenodd;stroke:none" id="path2456"/><path d="M 1264,2738.19 L 1252,2738.19 L 1252,2659.19 L 1251,2657.19 L 1250,2655.19 L 1250,2655.19 L 1248,2654.19 L 1245,2653.19 L 1262,2653.19 L 1263,2655.19 L 1263,2660.19 L 1264,2663.19 L 1264,2667.19" style="fill:#000000;fill-opacity:1;fill-rule:evenodd;stroke:none" id="path2458"/><path d="M 1252,2751.19 L 1264,2751.19 L 1264,2764.19 L 1252,2764.19 L 1252,2751.19 z" style="fill:#000000;fill-opacity:1;fill-rule:evenodd;stroke:none" id="path2460"/><path d="M 1329,2692.19 L 1329,2692.19 L 1328,2690.19 L 1326,2687.19 L 1325,2685.19 L 1323,2683.19 L 1322,2682.19 L 1321,2681.19 L 1318,2680.19 L 1316,2679.19 L 1314,2679.19 L 1311,2678.19 L 1287,2678.19 L 1288,2678.19 L 1289,2676.19 L 1291,2675.19 L 1293,2673.19 L 1295,2672.19 L 1298,2671.19 L 1300,2670.19 L 1303,2670.19 L 1305,2669.19 L 1311,2669.19 L 1317,2669.19 L 1319,2670.19 L 1322,2670.19 L 1324,2671.19 L 1326,2672.19 L 1328,2673.19 L 1330,2675.19 L 1331,2676.19 L 1333,2677.19 L 1335,2679.19 L 1336,2681.19 L 1338,2684.19 L 1339,2686.19 L 1340,2688.19 L 1341,2691.19" style="fill:#000000;fill-opacity:1;fill-rule:evenodd;stroke:none" id="path2462"/><path d="M 1287,2731.19 L 1287,2730.19 L 1285,2728.19 L 1284,2726.19 L 1283,2724.19 L 1282,2722.19 L 1281,2720.19 L 1280,2718.19 L 1280,2715.19 L 1279,2713.19 L 1279,2710.19 L 1278,2707.19 L 1278,2701.19 L 1279,2698.19 L 1279,2696.19 L 1280,2693.19 L 1280,2691.19 L 1281,2688.19 L 1282,2686.19 L 1283,2684.19 L 1284,2682.19 L 1286,2680.19 L 1287,2678.19 L 1311,2678.19 L 1310,2679.19 L 1305,2679.19 L 1303,2680.19 L 1301,2681.19 L 1299,2683.19 L 1297,2684.19 L 1296,2685.19 L 1295,2687.19 L 1294,2689.19 L 1293,2691.19 L 1292,2693.19 L 1291,2696.19 L 1291,2699.19 L 1290,2702.19 L 1341,2702.19 L 1341,2711.19 L 1291,2711.19 L 1291,2714.19 L 1292,2717.19 L 1293,2719.19 L 1294,2721.19 L 1295,2723.19 L 1297,2725.19 L 1298,2727.19 L 1301,2728.19 L 1303,2729.19 L 1305,2730.19 L 1308,2730.19 L 1310,2731.19" style="fill:#000000;fill-opacity:1;fill-rule:evenodd;stroke:none" id="path2464"/><path d="M 1310,2740.19 L 1305,2740.19 L 1302,2739.19 L 1300,2738.19 L 1297,2738.19 L 1295,2737.19 L 1293,2735.19 L 1291,2734.19 L 1289,2732.19 L 1287,2731.19 L 1311,2731.19 L 1314,2730.19 L 1316,2730.19 L 1319,2729.19 L 1321,2727.19 L 1323,2726.19 L 1325,2724.19 L 1325,2723.19 L 1326,2721.19 L 1327,2719.19 L 1328,2717.19 L 1329,2714.19 L 1329,2711.19 L 1291,2711.19 L 1341,2711.19 L 1340,2713.19 L 1340,2716.19 L 1339,2718.19 L 1338,2721.19 L 1338,2723.19 L 1336,2725.19 L 1335,2727.19 L 1334,2729.19 L 1332,2731.19 L 1331,2732.19 L 1329,2734.19 L 1327,2735.19 L 1325,2737.19 L 1323,2738.19 L 1320,2738.19 L 1318,2739.19 L 1316,2740.19 L 1313,2740.19" style="fill:#000000;fill-opacity:1;fill-rule:evenodd;stroke:none" id="path2466"/><path d="M 1409,2738.19 L 1394,2738.19 L 1367,2711.19 L 1375,2705.19 L 1397,2671.19 L 1412,2671.19 L 1383,2713.19" style="fill:#000000;fill-opacity:1;fill-rule:evenodd;stroke:none" id="path2468"/><path d="M 1367,2764.19 L 1355,2764.19 L 1355,2671.19 L 1367,2671.19 L 1367,2697.19 L 1375,2705.19 L 1367,2711.19" style="fill:#000000;fill-opacity:1;fill-rule:evenodd;stroke:none" id="path2470"/><path d="M 1446,2681.19 L 1444,2681.19 L 1441,2680.19 L 1424,2680.19 L 1424,2678.19 L 1425,2677.19 L 1426,2675.19 L 1427,2673.19 L 1430,2672.19 L 1431,2671.19 L 1434,2670.19 L 1445,2670.19 L 1448,2671.19" style="fill:#000000;fill-opacity:1;fill-rule:evenodd;stroke:none" id="path2472"/><path d="M 1435,2762.19 L 1423,2755.19 L 1423,2738.19 L 1415,2738.19 L 1415,2730.19 L 1423,2730.19 L 1423,2686.19 L 1424,2683.19 L 1424,2680.19 L 1441,2680.19 L 1440,2681.19 L 1437,2681.19 L 1437,2682.19 L 1435,2683.19 L 1435,2730.19 L 1446,2730.19 L 1446,2738.19 L 1435,2738.19" style="fill:#000000;fill-opacity:1;fill-rule:evenodd;stroke:none" id="path2474"/><path d="M 1457,2671.19 L 1469,2671.19 L 1469,2738.19 L 1457,2738.19 L 1457,2671.19 z" style="fill:#000000;fill-opacity:1;fill-rule:evenodd;stroke:none" id="path2476"/><path d="M 1457,2751.19 L 1469,2751.19 L 1469,2764.19 L 1457,2764.19 L 1457,2751.19 z" style="fill:#000000;fill-opacity:1;fill-rule:evenodd;stroke:none" id="path2478"/><path d="M 1491,2731.19 L 1489,2729.19 L 1488,2727.19 L 1487,2725.19 L 1485,2723.19 L 1485,2721.19 L 1484,2718.19 L 1483,2716.19 L 1483,2713.19 L 1482,2710.19 L 1482,2698.19 L 1483,2695.19 L 1483,2693.19 L 1484,2690.19 L 1485,2688.19 L 1486,2686.19 L 1487,2684.19 L 1488,2682.19 L 1489,2680.19 L 1491,2678.19 L 1514,2678.19 L 1513,2679.19 L 1508,2679.19 L 1505,2680.19 L 1503,2682.19 L 1501,2683.19 L 1499,2685.19 L 1499,2685.19 L 1498,2687.19 L 1497,2689.19 L 1496,2691.19 L 1495,2693.19 L 1495,2696.19 L 1494,2699.19 L 1494,2711.19 L 1495,2714.19 L 1495,2716.19 L 1496,2718.19 L 1497,2720.19 L 1498,2722.19 L 1499,2724.19 L 1500,2725.19 L 1502,2727.19 L 1504,2728.19 L 1506,2729.19 L 1509,2730.19 L 1514,2730.19" style="fill:#000000;fill-opacity:1;fill-rule:evenodd;stroke:none" id="path2480"/><path d="M 1514,2740.19 L 1508,2740.19 L 1506,2739.19 L 1503,2739.19 L 1501,2738.19 L 1499,2737.19 L 1497,2735.19 L 1494,2734.19 L 1492,2732.19 L 1492,2732.19 L 1491,2731.19 L 1514,2730.19 L 1520,2730.19 L 1522,2729.19 L 1524,2727.19 L 1526,2726.19 L 1528,2724.19 L 1529,2722.19 L 1531,2720.19 L 1532,2718.19 L 1532,2716.19 L 1533,2714.19 L 1533,2711.19 L 1534,2708.19 L 1534,2701.19 L 1533,2698.19 L 1533,2695.19 L 1532,2693.19 L 1531,2691.19 L 1531,2689.19 L 1529,2687.19 L 1528,2685.19 L 1527,2684.19 L 1525,2682.19 L 1523,2681.19 L 1521,2680.19 L 1519,2679.19 L 1516,2679.19 L 1514,2678.19 L 1491,2678.19 L 1491,2678.19 L 1493,2676.19 L 1495,2675.19 L 1497,2673.19 L 1499,2672.19 L 1501,2671.19 L 1503,2670.19 L 1506,2670.19 L 1508,2669.19 L 1518,2669.19 L 1521,2670.19 L 1523,2670.19 L 1526,2671.19 L 1528,2672.19 L 1530,2673.19 L 1531,2674.19 L 1533,2675.19 L 1535,2677.19 L 1537,2679.19 L 1539,2681.19 L 1540,2683.19 L 1542,2685.19 L 1542,2685.19 L 1543,2687.19 L 1544,2689.19 L 1544,2692.19 L 1545,2694.19 L 1545,2699.19 L 1546,2702.19 L 1546,2708.19 L 1545,2711.19 L 1545,2716.19 L 1544,2719.19 L 1543,2721.19 L 1542,2723.19 L 1541,2725.19 L 1540,2727.19 L 1538,2729.19 L 1537,2731.19 L 1535,2733.19 L 1533,2734.19 L 1531,2736.19 L 1529,2737.19 L 1527,2738.19 L 1524,2739.19 L 1522,2739.19 L 1519,2740.19 L 1517,2740.19" style="fill:#000000;fill-opacity:1;fill-rule:evenodd;stroke:none" id="path2482"/><path d="M 1570,2731.19 L 1569,2729.19 L 1583,2729.19 L 1585,2730.19 L 1588,2730.19" style="fill:#000000;fill-opacity:1;fill-rule:evenodd;stroke:none" id="path2484"/><path d="M 1569,2738.19 L 1558,2738.19 L 1558,2671.19 L 1570,2671.19 L 1570,2715.19 L 1571,2718.19 L 1572,2720.19 L 1573,2722.19 L 1574,2724.19 L 1575,2725.19 L 1576,2726.19 L 1578,2727.19 L 1580,2729.19 L 1569,2729.19" style="fill:#000000;fill-opacity:1;fill-rule:evenodd;stroke:none" id="path2486"/><path d="M 1590,2740.19 L 1585,2740.19 L 1582,2739.19 L 1580,2738.19 L 1578,2737.19 L 1576,2736.19 L 1574,2734.19 L 1572,2733.19 L 1570,2731.19 L 1588,2730.19 L 1591,2730.19 L 1594,2729.19 L 1596,2728.19 L 1598,2727.19 L 1599,2725.19 L 1601,2722.19 L 1601,2720.19 L 1602,2718.19 L 1602,2671.19 L 1613,2671.19 L 1613,2724.19 L 1612,2725.19 L 1612,2728.19 L 1611,2730.19 L 1609,2732.19 L 1608,2733.19 L 1606,2735.19 L 1604,2737.19 L 1602,2738.19 L 1600,2738.19 L 1598,2739.19 L 1596,2740.19 L 1593,2740.19" style="fill:#000000;fill-opacity:1;fill-rule:evenodd;stroke:none" id="path2488"/><path d="M 1637,2693.19 L 1626,2691.19 L 1626,2690.19 L 1627,2687.19 L 1627,2684.19 L 1629,2682.19 L 1630,2680.19 L 1631,2678.19 L 1655,2678.19 L 1654,2678.19 L 1651,2679.19 L 1649,2679.19 L 1646,2680.19 L 1644,2681.19 L 1642,2682.19 L 1641,2683.19 L 1640,2685.19 L 1638,2687.19 L 1638,2690.19" style="fill:#000000;fill-opacity:1;fill-rule:evenodd;stroke:none" id="path2490"/><path d="M 1631,2731.19 L 1630,2729.19 L 1629,2728.19 L 1628,2726.19 L 1628,2716.19 L 1629,2714.19 L 1630,2711.19 L 1631,2710.19 L 1633,2708.19 L 1635,2706.19 L 1638,2705.19 L 1638,2705.19 L 1639,2704.19 L 1641,2703.19 L 1643,2703.19 L 1646,2702.19 L 1649,2701.19 L 1652,2700.19 L 1655,2699.19 L 1658,2699.19 L 1661,2698.19 L 1664,2697.19 L 1666,2696.19 L 1667,2695.19 L 1669,2694.19 L 1670,2692.19 L 1670,2686.19 L 1668,2684.19 L 1666,2682.19 L 1665,2681.19 L 1663,2680.19 L 1660,2679.19 L 1658,2679.19 L 1655,2678.19 L 1631,2678.19 L 1633,2676.19 L 1635,2675.19 L 1635,2674.19 L 1637,2673.19 L 1639,2672.19 L 1641,2671.19 L 1643,2670.19 L 1646,2670.19 L 1649,2669.19 L 1659,2669.19 L 1662,2670.19 L 1664,2670.19 L 1667,2671.19 L 1669,2672.19 L 1671,2673.19 L 1674,2674.19 L 1676,2676.19 L 1677,2678.19 L 1679,2680.19 L 1679,2681.19 L 1681,2683.19 L 1681,2685.19 L 1682,2688.19 L 1682,2693.19 L 1681,2696.19 L 1681,2698.19 L 1679,2700.19 L 1678,2702.19 L 1676,2704.19 L 1674,2705.19 L 1672,2706.19 L 1670,2707.19 L 1669,2708.19 L 1666,2708.19 L 1664,2709.19 L 1661,2710.19 L 1658,2711.19 L 1655,2712.19 L 1654,2712.19 L 1651,2713.19 L 1648,2714.19 L 1646,2714.19 L 1645,2715.19 L 1644,2715.19 L 1642,2716.19 L 1640,2718.19 L 1639,2719.19 L 1639,2724.19 L 1640,2726.19 L 1642,2728.19 L 1643,2729.19 L 1645,2729.19 L 1647,2730.19 L 1650,2730.19 L 1653,2731.19" style="fill:#000000;fill-opacity:1;fill-rule:evenodd;stroke:none" id="path2492"/><path d="M 1653,2740.19 L 1648,2740.19 L 1645,2739.19 L 1642,2739.19 L 1640,2738.19 L 1637,2737.19 L 1635,2735.19 L 1635,2735.19 L 1633,2733.19 L 1631,2731.19 L 1654,2731.19 L 1657,2730.19 L 1660,2730.19 L 1662,2729.19 L 1664,2728.19 L 1665,2726.19 L 1667,2724.19 L 1668,2722.19 L 1668,2719.19 L 1680,2721.19 L 1679,2722.19 L 1679,2725.19 L 1678,2727.19 L 1677,2730.19 L 1676,2732.19 L 1675,2732.19 L 1674,2734.19 L 1672,2735.19 L 1669,2737.19 L 1667,2738.19 L 1665,2738.19 L 1663,2739.19 L 1661,2739.19 L 1658,2740.19 L 1655,2740.19" style="fill:#000000;fill-opacity:1;fill-rule:evenodd;stroke:none" id="path2494"/><path d="M 1691,2699.19 L 1726,2699.19 L 1726,2710.19 L 1691,2710.19 L 1691,2699.19 z" style="fill:#000000;fill-opacity:1;fill-rule:evenodd;stroke:none" id="path2496"/><path d="M 1117,2613.19 L 1049,2613.19 L 1049,2519.19 L 1119,2519.19 L 1119,2530.19 L 1061,2530.19 L 1061,2562.19 L 1113,2562.19 L 1113,2573.19 L 1061,2573.19 L 1061,2602.19 L 1117,2602.19" style="fill:#000000;fill-opacity:1;fill-rule:evenodd;stroke:none" id="path2498"/><path d="M 1158,2528.19 L 1146,2527.19 L 1147,2525.19 L 1164,2527.19 L 1161,2527.19" style="fill:#000000;fill-opacity:1;fill-rule:evenodd;stroke:none" id="path2500"/><path d="M 1165,2588.19 L 1161,2588.19 L 1159,2587.19 L 1157,2587.19 L 1154,2586.19 L 1152,2584.19 L 1150,2583.19 L 1148,2581.19 L 1147,2579.19 L 1166,2579.19 L 1169,2578.19 L 1171,2577.19 L 1173,2576.19 L 1175,2574.19 L 1177,2572.19 L 1177,2572.19 L 1178,2571.19 L 1179,2569.19 L 1180,2567.19 L 1181,2564.19 L 1182,2562.19 L 1182,2544.19 L 1181,2541.19 L 1180,2539.19 L 1179,2537.19 L 1178,2535.19 L 1177,2533.19 L 1175,2531.19 L 1173,2530.19 L 1171,2528.19 L 1169,2527.19 L 1164,2527.19 L 1147,2525.19 L 1149,2523.19 L 1151,2522.19 L 1153,2520.19 L 1155,2519.19 L 1157,2518.19 L 1160,2518.19 L 1162,2517.19 L 1165,2517.19 L 1168,2517.19 L 1170,2518.19 L 1173,2518.19 L 1175,2519.19 L 1177,2520.19 L 1180,2522.19 L 1182,2523.19 L 1184,2525.19 L 1185,2527.19 L 1186,2527.19 L 1187,2529.19 L 1189,2531.19 L 1190,2533.19 L 1191,2535.19 L 1192,2538.19 L 1192,2540.19 L 1193,2542.19 L 1194,2545.19 L 1194,2560.19 L 1193,2563.19 L 1193,2565.19 L 1192,2568.19 L 1191,2570.19 L 1190,2572.19 L 1189,2575.19 L 1188,2577.19 L 1186,2579.19 L 1186,2580.19 L 1184,2582.19 L 1182,2583.19 L 1180,2585.19 L 1177,2586.19 L 1175,2586.19 L 1173,2587.19 L 1171,2588.19 L 1168,2588.19" style="fill:#000000;fill-opacity:1;fill-rule:evenodd;stroke:none" id="path2502"/><path d="M 1147,2613.19 L 1135,2613.19 L 1135,2519.19 L 1146,2519.19 L 1146,2527.19 L 1158,2528.19 L 1156,2528.19 L 1154,2530.19 L 1152,2531.19 L 1151,2533.19 L 1149,2536.19 L 1149,2536.19 L 1148,2537.19 L 1147,2539.19 L 1147,2542.19 L 1146,2544.19 L 1146,2562.19 L 1147,2564.19 L 1148,2566.19 L 1149,2569.19 L 1150,2571.19 L 1151,2572.19 L 1153,2574.19 L 1155,2576.19 L 1157,2577.19 L 1159,2578.19 L 1162,2579.19 L 1164,2579.19 L 1147,2579.19" style="fill:#000000;fill-opacity:1;fill-rule:evenodd;stroke:none" id="path2504"/><path d="M 1255,2541.19 L 1255,2541.19 L 1254,2538.19 L 1252,2535.19 L 1251,2533.19 L 1249,2532.19 L 1248,2530.19 L 1247,2529.19 L 1244,2528.19 L 1242,2527.19 L 1237,2527.19 L 1213,2526.19 L 1214,2526.19 L 1215,2524.19 L 1217,2523.19 L 1219,2522.19 L 1221,2520.19 L 1224,2519.19 L 1226,2519.19 L 1229,2518.19 L 1231,2518.19 L 1234,2517.19 L 1237,2517.19 L 1240,2517.19 L 1243,2518.19 L 1245,2518.19 L 1248,2519.19 L 1250,2520.19 L 1252,2521.19 L 1254,2522.19 L 1256,2523.19 L 1257,2524.19 L 1259,2526.19 L 1261,2528.19 L 1262,2530.19 L 1264,2532.19 L 1265,2534.19 L 1266,2537.19 L 1267,2539.19" style="fill:#000000;fill-opacity:1;fill-rule:evenodd;stroke:none" id="path2506"/><path d="M 1213,2579.19 L 1213,2578.19 L 1211,2577.19 L 1210,2575.19 L 1209,2573.19 L 1208,2571.19 L 1207,2568.19 L 1206,2566.19 L 1206,2563.19 L 1205,2561.19 L 1205,2558.19 L 1204,2555.19 L 1204,2549.19 L 1205,2547.19 L 1205,2544.19 L 1206,2541.19 L 1206,2539.19 L 1207,2536.19 L 1208,2534.19 L 1209,2532.19 L 1210,2530.19 L 1212,2528.19 L 1213,2526.19 L 1237,2527.19 L 1231,2527.19 L 1229,2528.19 L 1227,2529.19 L 1225,2531.19 L 1223,2533.19 L 1222,2533.19 L 1221,2535.19 L 1220,2537.19 L 1219,2539.19 L 1218,2541.19 L 1217,2544.19 L 1217,2547.19 L 1216,2550.19 L 1267,2550.19 L 1267,2559.19 L 1217,2559.19 L 1217,2563.19 L 1218,2565.19 L 1219,2567.19 L 1220,2570.19 L 1221,2572.19 L 1223,2573.19 L 1224,2575.19 L 1227,2576.19 L 1229,2577.19 L 1231,2578.19 L 1234,2579.19 L 1236,2579.19" style="fill:#000000;fill-opacity:1;fill-rule:evenodd;stroke:none" id="path2508"/><path d="M 1236,2588.19 L 1231,2588.19 L 1228,2587.19 L 1226,2587.19 L 1223,2586.19 L 1221,2585.19 L 1219,2584.19 L 1217,2582.19 L 1215,2581.19 L 1213,2579.19 L 1237,2579.19 L 1240,2578.19 L 1242,2578.19 L 1245,2577.19 L 1247,2576.19 L 1249,2574.19 L 1251,2572.19 L 1251,2572.19 L 1252,2570.19 L 1253,2568.19 L 1254,2565.19 L 1255,2562.19 L 1255,2559.19 L 1217,2559.19 L 1267,2559.19 L 1266,2562.19 L 1266,2564.19 L 1265,2567.19 L 1264,2569.19 L 1264,2571.19 L 1262,2573.19 L 1261,2575.19 L 1260,2577.19 L 1258,2579.19 L 1257,2580.19 L 1255,2582.19 L 1253,2584.19 L 1251,2585.19 L 1249,2586.19 L 1246,2587.19 L 1244,2587.19 L 1242,2588.19 L 1239,2588.19" style="fill:#000000;fill-opacity:1;fill-rule:evenodd;stroke:none" id="path2510"/><path d="M 1293,2579.19 L 1292,2577.19 L 1303,2577.19 L 1306,2578.19 L 1311,2578.19" style="fill:#000000;fill-opacity:1;fill-rule:evenodd;stroke:none" id="path2512"/><path d="M 1292,2587.19 L 1281,2587.19 L 1281,2519.19 L 1293,2519.19 L 1293,2564.19 L 1294,2566.19 L 1295,2569.19 L 1296,2571.19 L 1297,2572.19 L 1298,2574.19 L 1299,2574.19 L 1301,2576.19 L 1303,2577.19 L 1292,2577.19" style="fill:#000000;fill-opacity:1;fill-rule:evenodd;stroke:none" id="path2514"/><path d="M 1313,2588.19 L 1308,2588.19 L 1305,2587.19 L 1303,2586.19 L 1301,2585.19 L 1299,2584.19 L 1297,2583.19 L 1295,2581.19 L 1293,2579.19 L 1311,2578.19 L 1314,2578.19 L 1317,2577.19 L 1319,2576.19 L 1321,2575.19 L 1322,2573.19 L 1324,2571.19 L 1324,2569.19 L 1325,2566.19 L 1325,2519.19 L 1336,2519.19 L 1336,2572.19 L 1335,2573.19 L 1335,2576.19 L 1334,2578.19 L 1332,2580.19 L 1331,2582.19 L 1329,2583.19 L 1327,2585.19 L 1325,2586.19 L 1323,2587.19 L 1321,2587.19 L 1319,2588.19 L 1316,2588.19" style="fill:#000000;fill-opacity:1;fill-rule:evenodd;stroke:none" id="path2516"/><path d="M 1400,2541.19 L 1400,2541.19 L 1399,2538.19 L 1397,2535.19 L 1396,2533.19 L 1394,2532.19 L 1393,2530.19 L 1392,2529.19 L 1389,2528.19 L 1387,2527.19 L 1382,2527.19 L 1358,2526.19 L 1359,2526.19 L 1360,2524.19 L 1362,2523.19 L 1364,2522.19 L 1366,2520.19 L 1369,2519.19 L 1371,2519.19 L 1374,2518.19 L 1376,2518.19 L 1379,2517.19 L 1382,2517.19 L 1385,2517.19 L 1388,2518.19 L 1390,2518.19 L 1393,2519.19 L 1395,2520.19 L 1397,2521.19 L 1399,2522.19 L 1401,2523.19 L 1402,2524.19 L 1404,2526.19 L 1406,2528.19 L 1407,2530.19 L 1409,2532.19 L 1410,2534.19 L 1411,2537.19 L 1412,2539.19" style="fill:#000000;fill-opacity:1;fill-rule:evenodd;stroke:none" id="path2518"/><path d="M 1358,2579.19 L 1358,2578.19 L 1356,2577.19 L 1355,2575.19 L 1354,2573.19 L 1353,2571.19 L 1352,2568.19 L 1351,2566.19 L 1351,2563.19 L 1350,2561.19 L 1350,2558.19 L 1349,2555.19 L 1349,2549.19 L 1350,2547.19 L 1350,2544.19 L 1351,2541.19 L 1351,2539.19 L 1352,2536.19 L 1353,2534.19 L 1354,2532.19 L 1355,2530.19 L 1357,2528.19 L 1358,2526.19 L 1382,2527.19 L 1376,2527.19 L 1374,2528.19 L 1372,2529.19 L 1370,2531.19 L 1368,2533.19 L 1367,2533.19 L 1366,2535.19 L 1365,2537.19 L 1364,2539.19 L 1363,2541.19 L 1362,2544.19 L 1362,2547.19 L 1361,2550.19 L 1412,2550.19 L 1412,2559.19 L 1362,2559.19 L 1362,2563.19 L 1363,2565.19 L 1364,2567.19 L 1365,2570.19 L 1366,2572.19 L 1368,2573.19 L 1369,2575.19 L 1372,2576.19 L 1374,2577.19 L 1376,2578.19 L 1379,2579.19 L 1381,2579.19" style="fill:#000000;fill-opacity:1;fill-rule:evenodd;stroke:none" id="path2520"/><path d="M 1381,2588.19 L 1376,2588.19 L 1373,2587.19 L 1371,2587.19 L 1368,2586.19 L 1366,2585.19 L 1364,2584.19 L 1362,2582.19 L 1360,2581.19 L 1358,2579.19 L 1382,2579.19 L 1385,2578.19 L 1387,2578.19 L 1390,2577.19 L 1392,2576.19 L 1394,2574.19 L 1396,2572.19 L 1396,2572.19 L 1397,2570.19 L 1398,2568.19 L 1399,2565.19 L 1400,2562.19 L 1400,2559.19 L 1362,2559.19 L 1412,2559.19 L 1411,2562.19 L 1411,2564.19 L 1410,2567.19 L 1409,2569.19 L 1409,2571.19 L 1407,2573.19 L 1406,2575.19 L 1405,2577.19 L 1403,2579.19 L 1402,2580.19 L 1400,2582.19 L 1398,2584.19 L 1396,2585.19 L 1394,2586.19 L 1391,2587.19 L 1389,2587.19 L 1387,2588.19 L 1384,2588.19" style="fill:#000000;fill-opacity:1;fill-rule:evenodd;stroke:none" id="path2522"/><path d="M 1981,2635.19 L 1049,2635.19" style="fill:none;stroke:#000000;stroke-width:3;stroke-linecap:round;stroke-linejoin:round;stroke-miterlimit:10;stroke-dasharray:none;stroke-opacity:1" id="path2524"/><path d="M 3393,1454.19 L 3391,1528.19 L 3384,1602.19 L 3372,1675.19 L 3356,1748.19 L 3335,1819.19 L 3310,1889.19 L 3280,1957.19 L 3247,2023.19 L 3209,2087.19 L 3167,2148.19 L 3122,2207.19 L 3073,2262.19 L 3020,2315.19 L 2965,2364.19 L 2906,2409.19 L 2845,2451.19 L 2781,2489.19 L 2715,2522.19 L 2647,2552.19 L 2577,2577.19 L 2506,2598.19 L 2433,2614.19 L 2360,2626.19 L 2286,2632.19 L 2212,2635.19 L 2138,2632.19 L 2064,2626.19 L 1991,2614.19 L 1918,2598.19 L 1847,2577.19 L 1777,2552.19 L 1709,2522.19 L 1643,2489.19 L 1579,2451.19 L 1518,2409.19 L 1459,2364.19 L 1404,2315.19 L 1351,2262.19 L 1302,2207.19 L 1257,2148.19 L 1215,2087.19 L 1177,2023.19 L 1143,1957.19 L 1114,1889.19 L 1089,1819.19 L 1068,1748.19 L 1052,1675.19 L 1040,1602.19 L 1033,1528.19 L 1031,1454.19 L 1033,1380.19 L 1040,1306.19 L 1052,1233.19 L 1068,1160.19 L 1089,1089.19 L 1114,1019.19 L 1143,951.189 L 1177,885.189 L 1215,821.189 L 1257,760.189 L 1302,701.189 L 1351,645.189 L 1404,593.189 L 1459,544.189 L 1518,498.189 L 1579,457.189 L 1643,419.189 L 1709,385.189 L 1777,356.189 L 1847,331.189 L 1918,310.189 L 1991,294.189 L 2064,282.189 L 2138,275.189 L 2212,273.189 L 2286,275.189 L 2360,282.189 L 2433,294.189 L 2506,310.189 L 2577,331.189 L 2647,356.189 L 2715,385.189 L 2781,419.189 L 2845,457.189 L 2906,498.189 L 2965,544.189 L 3020,593.189 L 3073,645.189 L 3122,701.189 L 3167,760.189 L 3209,821.189 L 3247,885.189 L 3280,951.189 L 3310,1019.19 L 3335,1089.19 L 3356,1160.19 L 3372,1233.19 L 3384,1306.19 L 3391,1380.19 L 3393,1454.19" style="fill:none;stroke:#000000;stroke-width:3;stroke-linecap:round;stroke-linejoin:round;stroke-miterlimit:10;stroke-dasharray:none;stroke-opacity:1" id="path2526"/><path d="M 3903,2635.19 L 1981,2635.19" style="fill:none;stroke:#000000;stroke-width:7;stroke-linecap:round;stroke-linejoin:round;stroke-miterlimit:10;stroke-dasharray:none;stroke-opacity:1" id="path2528"/><path d="M 2247,2635.19 L 2246,2646.19 L 2241,2656.19 L 2233,2663.19 L 2223,2669.19 L 2212,2670.19 L 2201,2669.19 L 2191,2663.19 L 2183,2656.19 L 2178,2646.19 L 2176,2635.19 L 2178,2624.19 L 2183,2614.19 L 2191,2606.19 L 2201,2601.19 L 2212,2599.19 L 2223,2601.19 L 2233,2606.19 L 2241,2614.19 L 2246,2624.19 L 2247,2635.19" style="fill:none;stroke:#000000;stroke-width:1;stroke-linecap:round;stroke-linejoin:round;stroke-miterlimit:10;stroke-dasharray:none;stroke-opacity:1" id="path2530"/><path d="M 1934,3106.19 L 3566,2164.19" style="fill:none;stroke:#000000;stroke-width:7;stroke-linecap:round;stroke-linejoin:round;stroke-miterlimit:10;stroke-dasharray:none;stroke-opacity:1" id="path2532"/><path d="M 3938,2635.19 L 3936,2646.19 L 3931,2656.19 L 3923,2663.19 L 3913,2669.19 L 3903,2670.19 L 3892,2669.19 L 3882,2663.19 L 3874,2656.19 L 3869,2646.19 L 3867,2635.19 L 3869,2624.19 L 3874,2614.19 L 3882,2606.19 L 3892,2601.19 L 3903,2599.19 L 3913,2601.19 L 3923,2606.19 L 3931,2614.19 L 3936,2624.19 L 3938,2635.19" style="fill:none;stroke:#000000;stroke-width:1;stroke-linecap:round;stroke-linejoin:round;stroke-miterlimit:10;stroke-dasharray:none;stroke-opacity:1" id="path2534"/><path d="M 2016,2635.19 L 2014,2646.19 L 2009,2656.19 L 2001,2663.19 L 1992,2669.19 L 1981,2670.19 L 1970,2669.19 L 1960,2663.19 L 1952,2656.19 L 1947,2646.19 L 1945,2635.19 L 1947,2624.19 L 1952,2614.19 L 1960,2606.19 L 1970,2601.19 L 1981,2599.19 L 1992,2601.19 L 2001,2606.19 L 2009,2614.19 L 2014,2624.19 L 2016,2635.19" style="fill:none;stroke:#000000;stroke-width:1;stroke-linecap:round;stroke-linejoin:round;stroke-miterlimit:10;stroke-dasharray:none;stroke-opacity:1" id="path2536"/><path d="M 1970,3106.19 L 1968,3117.19 L 1963,3126.19 L 1955,3134.19 L 1945,3139.19 L 1934,3141.19 L 1924,3139.19 L 1914,3134.19 L 1906,3126.19 L 1901,3117.19 L 1899,3106.19 L 1901,3095.19 L 1906,3085.19 L 1914,3077.19 L 1924,3072.19 L 1934,3070.19 L 1945,3072.19 L 1955,3077.19 L 1963,3085.19 L 1968,3095.19 L 1970,3106.19" style="fill:none;stroke:#000000;stroke-width:1;stroke-linecap:round;stroke-linejoin:round;stroke-miterlimit:10;stroke-dasharray:none;stroke-opacity:1" id="path2538"/><path d="M 3601,2164.19 L 3599,2175.19 L 3594,2185.19 L 3586,2193.19 L 3576,2198.19 L 3566,2199.19 L 3555,2198.19 L 3545,2193.19 L 3537,2185.19 L 3532,2175.19 L 3530,2164.19 L 3532,2153.19 L 3537,2143.19 L 3545,2135.19 L 3555,2130.19 L 3566,2129.19 L 3576,2130.19 L 3586,2135.19 L 3594,2143.19 L 3599,2153.19 L 3601,2164.19" style="fill:none;stroke:#000000;stroke-width:1;stroke-linecap:round;stroke-linejoin:round;stroke-miterlimit:10;stroke-dasharray:none;stroke-opacity:1" id="path2540"/><path d="M 2750,2635.19 L 3636,2397.19" style="fill:none;stroke:#000000;stroke-width:3;stroke-linecap:round;stroke-linejoin:round;stroke-miterlimit:10;stroke-dasharray:none;stroke-opacity:1" id="path2542"/><path d="M 2247,1454.19 L 2246,1465.19 L 2241,1475.19 L 2233,1483.19 L 2223,1488.19 L 2212,1489.19 L 2201,1488.19 L 2191,1483.19 L 2183,1475.19 L 2178,1465.19 L 2176,1454.19 L 2178,1443.19 L 2183,1433.19 L 2191,1425.19 L 2201,1420.19 L 2212,1418.19 L 2223,1420.19 L 2233,1425.19 L 2241,1433.19 L 2246,1443.19 L 2247,1454.19" style="fill:none;stroke:#000000;stroke-width:1;stroke-linecap:round;stroke-linejoin:round;stroke-miterlimit:10;stroke-dasharray:none;stroke-opacity:1" id="path2544"/><path d="M 3524,2297.19 L 3536,2326.19" style="fill:none;stroke:#000000;stroke-width:3;stroke-linecap:round;stroke-linejoin:round;stroke-miterlimit:10;stroke-dasharray:none;stroke-opacity:1" id="path2546"/><path d="M 3538,2290.19 L 3510,2304.19 L 3482,2212.19" style="fill:#000000;fill-opacity:1;fill-rule:evenodd;stroke:none" id="path2548"/><path d="M 3521,2331.19 L 3551,2322.19 L 3566,2416.19" style="fill:#000000;fill-opacity:1;fill-rule:evenodd;stroke:none" id="path2550"/><path d="M 3479,2346.19 L 3454,2289.19 L 3464,2285.19 L 3489,2341.19" style="fill:#000000;fill-opacity:1;fill-rule:evenodd;stroke:none" id="path2552"/><path d="M 3453,2357.19 L 3428,2301.19 L 3438,2296.19 L 3463,2353.19" style="fill:#000000;fill-opacity:1;fill-rule:evenodd;stroke:none" id="path2554"/><path d="M 3585,2509.19 L 3589,2540.19" style="fill:none;stroke:#000000;stroke-width:3;stroke-linecap:round;stroke-linejoin:round;stroke-miterlimit:10;stroke-dasharray:none;stroke-opacity:1" id="path2556"/><path d="M 3601,2505.19 L 3570,2512.19 L 3566,2416.19" style="fill:#000000;fill-opacity:1;fill-rule:evenodd;stroke:none" id="path2558"/><path d="M 3574,2541.19 L 3605,2540.19 L 3595,2635.19" style="fill:#000000;fill-opacity:1;fill-rule:evenodd;stroke:none" id="path2560"/><path d="M 3531,2560.19 L 3523,2498.19 L 3533,2497.19 L 3542,2558.19" style="fill:#000000;fill-opacity:1;fill-rule:evenodd;stroke:none" id="path2562"/><path d="M 3503,2563.19 L 3494,2502.19 L 3505,2501.19 L 3513,2562.19" style="fill:#000000;fill-opacity:1;fill-rule:evenodd;stroke:none" id="path2564"/><path d="M 2785,2635.19 L 2784,2646.19 L 2779,2656.19 L 2771,2663.19 L 2761,2669.19 L 2750,2670.19 L 2739,2669.19 L 2729,2663.19 L 2721,2656.19 L 2716,2646.19 L 2715,2635.19 L 2716,2624.19 L 2721,2614.19 L 2729,2606.19 L 2739,2601.19 L 2750,2599.19 L 2761,2601.19 L 2771,2606.19 L 2779,2614.19 L 2784,2624.19 L 2785,2635.19" style="fill:none;stroke:#000000;stroke-width:1;stroke-linecap:round;stroke-linejoin:round;stroke-miterlimit:10;stroke-dasharray:none;stroke-opacity:1" id="path2566"/><path d="M 1915,2540.19 L 1913,2539.19 L 1910,2538.19 L 1908,2537.19 L 1908,2525.19 L 1908,2526.19 L 1911,2526.19 L 1913,2527.19 L 1915,2529.19 L 1918,2530.19 L 1920,2531.19 L 1921,2532.19 L 1923,2533.19 L 1925,2535.19 L 1927,2536.19 L 1929,2538.19 L 1931,2539.19" style="fill:#000000;fill-opacity:1;fill-rule:evenodd;stroke:none" id="path2568"/><path d="M 1943,2560.19 L 1935,2560.19 L 1935,2560.19 L 1934,2558.19 L 1932,2556.19 L 1931,2554.19 L 1929,2552.19 L 1927,2550.19 L 1925,2548.19 L 1923,2546.19 L 1922,2545.19 L 1919,2543.19 L 1917,2542.19 L 1915,2540.19 L 1931,2539.19 L 1931,2466.19 L 1943,2466.19" style="fill:#000000;fill-opacity:1;fill-rule:evenodd;stroke:none" id="path2570"/><path d="M 3460,1888.19 L 3436,1888.19 L 3441,1888.19 L 3443,1887.19 L 3445,1886.19 L 3447,1885.19 L 3449,1883.19 L 3449,1883.19 L 3451,1881.19 L 3452,1879.19 L 3453,1877.19 L 3454,1874.19 L 3454,1867.19 L 3453,1865.19 L 3452,1863.19 L 3450,1860.19 L 3449,1858.19 L 3449,1858.19 L 3448,1856.19 L 3446,1855.19 L 3445,1853.19 L 3444,1852.19 L 3442,1850.19 L 3440,1848.19 L 3438,1846.19 L 3436,1844.19 L 3433,1842.19 L 3431,1840.19 L 3428,1838.19 L 3426,1836.19 L 3424,1834.19 L 3421,1832.19 L 3419,1830.19 L 3418,1829.19 L 3416,1827.19 L 3414,1825.19 L 3413,1824.19 L 3412,1822.19 L 3410,1820.19 L 3409,1818.19 L 3407,1816.19 L 3406,1814.19 L 3405,1811.19 L 3405,1809.19 L 3404,1806.19 L 3404,1803.19 L 3466,1803.19 L 3466,1814.19 L 3420,1814.19 L 3420,1815.19 L 3422,1817.19 L 3423,1819.19 L 3425,1821.19 L 3426,1821.19 L 3427,1823.19 L 3429,1824.19 L 3431,1826.19 L 3433,1828.19 L 3435,1830.19 L 3438,1832.19 L 3439,1833.19 L 3442,1835.19 L 3444,1837.19 L 3446,1839.19 L 3448,1841.19 L 3450,1843.19 L 3452,1845.19 L 3453,1846.19 L 3455,1848.19 L 3456,1849.19 L 3457,1850.19 L 3458,1852.19 L 3460,1854.19 L 3462,1856.19 L 3463,1858.19 L 3464,1860.19 L 3464,1861.19 L 3465,1864.19 L 3465,1866.19 L 3466,1869.19 L 3466,1875.19 L 3465,1877.19 L 3465,1880.19 L 3464,1882.19 L 3463,1884.19 L 3461,1886.19" style="fill:#000000;fill-opacity:1;fill-rule:evenodd;stroke:none" id="path2572"/><path d="M 3437,1898.19 L 3434,1897.19 L 3429,1897.19 L 3426,1896.19 L 3424,1895.19 L 3421,1894.19 L 3419,1893.19 L 3417,1892.19 L 3415,1891.19 L 3414,1889.19 L 3412,1887.19 L 3411,1885.19 L 3410,1883.19 L 3409,1881.19 L 3408,1879.19 L 3407,1876.19 L 3407,1873.19 L 3406,1870.19 L 3418,1869.19 L 3418,1872.19 L 3419,1875.19 L 3419,1877.19 L 3420,1879.19 L 3422,1881.19 L 3423,1883.19 L 3425,1884.19 L 3427,1886.19 L 3429,1887.19 L 3431,1887.19 L 3434,1888.19 L 3460,1888.19 L 3458,1890.19 L 3458,1890.19 L 3456,1892.19 L 3454,1893.19 L 3452,1894.19 L 3450,1895.19 L 3448,1896.19 L 3445,1897.19 L 3440,1897.19" style="fill:#000000;fill-opacity:1;fill-rule:evenodd;stroke:none" id="path2574"/><path d="M 1837,3055.19 L 1834,3054.19 L 1832,3053.19 L 1830,3052.19 L 1830,3041.19 L 1832,3042.19 L 1834,3043.19 L 1837,3044.19 L 1839,3045.19 L 1842,3047.19 L 1842,3047.19 L 1845,3048.19 L 1847,3050.19 L 1849,3051.19 L 1851,3053.19 L 1853,3054.19" style="fill:#000000;fill-opacity:1;fill-rule:evenodd;stroke:none" id="path2576"/><path d="M 1864,3075.19 L 1856,3075.19 L 1855,3073.19 L 1854,3071.19 L 1852,3069.19 L 1851,3067.19 L 1849,3065.19 L 1847,3063.19 L 1845,3061.19 L 1843,3060.19 L 1841,3058.19 L 1839,3057.19 L 1837,3055.19 L 1853,3054.19 L 1853,2981.19 L 1864,2981.19" style="fill:#000000;fill-opacity:1;fill-rule:evenodd;stroke:none" id="path2578"/><path d="M 1896,3042.19 L 1893,3059.19 L 1893,3075.19 L 1906,3075.19 L 1906,3059.19 L 1903,3042.19 L 1896,3042.19" style="fill:#000000;fill-opacity:1;fill-rule:evenodd;stroke:none" id="path2580"/><path d="M 3693,2221.19 L 3670,2221.19 L 3674,2221.19 L 3676,2220.19 L 3678,2219.19 L 3681,2218.19 L 3682,2216.19 L 3683,2216.19 L 3684,2214.19 L 3686,2212.19 L 3687,2210.19 L 3687,2200.19 L 3686,2198.19 L 3685,2196.19 L 3684,2193.19 L 3682,2191.19 L 3682,2191.19 L 3681,2189.19 L 3680,2188.19 L 3678,2186.19 L 3677,2185.19 L 3675,2183.19 L 3673,2181.19 L 3671,2179.19 L 3669,2177.19 L 3666,2175.19 L 3664,2173.19 L 3661,2171.19 L 3659,2169.19 L 3657,2167.19 L 3655,2165.19 L 3653,2163.19 L 3651,2162.19 L 3649,2160.19 L 3648,2158.19 L 3646,2157.19 L 3645,2155.19 L 3643,2153.19 L 3642,2151.19 L 3641,2149.19 L 3640,2147.19 L 3639,2144.19 L 3638,2144.19 L 3638,2141.19 L 3637,2139.19 L 3637,2136.19 L 3699,2136.19 L 3699,2147.19 L 3653,2147.19 L 3653,2147.19 L 3655,2150.19 L 3656,2152.19 L 3658,2154.19 L 3659,2154.19 L 3660,2156.19 L 3662,2157.19 L 3664,2159.19 L 3666,2161.19 L 3669,2163.19 L 3671,2165.19 L 3672,2166.19 L 3675,2168.19 L 3677,2170.19 L 3679,2172.19 L 3681,2174.19 L 3683,2176.19 L 3685,2178.19 L 3687,2179.19 L 3688,2181.19 L 3689,2182.19 L 3690,2183.19 L 3692,2185.19 L 3693,2187.19 L 3695,2189.19 L 3696,2191.19 L 3697,2193.19 L 3697,2194.19 L 3698,2197.19 L 3699,2199.19 L 3699,2210.19 L 3698,2212.19 L 3697,2215.19 L 3696,2217.19 L 3695,2219.19" style="fill:#000000;fill-opacity:1;fill-rule:evenodd;stroke:none" id="path2582"/><path d="M 3670,2230.19 L 3662,2230.19 L 3659,2229.19 L 3657,2228.19 L 3654,2227.19 L 3652,2226.19 L 3650,2225.19 L 3649,2224.19 L 3647,2222.19 L 3645,2220.19 L 3644,2218.19 L 3643,2216.19 L 3642,2214.19 L 3641,2212.19 L 3640,2209.19 L 3640,2206.19 L 3639,2203.19 L 3651,2202.19 L 3651,2205.19 L 3652,2207.19 L 3653,2210.19 L 3654,2212.19 L 3655,2214.19 L 3656,2216.19 L 3658,2217.19 L 3660,2218.19 L 3662,2220.19 L 3664,2220.19 L 3667,2221.19 L 3693,2221.19 L 3691,2223.19 L 3691,2223.19 L 3689,2225.19 L 3687,2226.19 L 3685,2227.19 L 3683,2228.19 L 3681,2229.19 L 3678,2230.19 L 3673,2230.19" style="fill:#000000;fill-opacity:1;fill-rule:evenodd;stroke:none" id="path2584"/><path d="M 3714,2197.19 L 3711,2214.19 L 3711,2230.19 L 3724,2230.19 L 3724,2214.19 L 3721,2197.19 L 3714,2197.19" style="fill:#000000;fill-opacity:1;fill-rule:evenodd;stroke:none" id="path2586"/><path d="M 1854,2750.19 L 1852,2749.19 L 1850,2748.19 L 1847,2746.19 L 1847,2735.19 L 1848,2735.19 L 1850,2736.19 L 1852,2737.19 L 1854,2738.19 L 1857,2740.19 L 1859,2741.19 L 1860,2741.19 L 1862,2743.19 L 1865,2744.19 L 1867,2746.19 L 1869,2748.19 L 1870,2749.19" style="fill:#000000;fill-opacity:1;fill-rule:evenodd;stroke:none" id="path2588"/><path d="M 1882,2770.19 L 1874,2770.19 L 1874,2769.19 L 1873,2767.19 L 1872,2765.19 L 1870,2763.19 L 1868,2761.19 L 1866,2759.19 L 1864,2757.19 L 1863,2756.19 L 1861,2754.19 L 1859,2753.19 L 1857,2752.19 L 1854,2750.19 L 1870,2749.19 L 1870,2676.19 L 1882,2676.19" style="fill:#000000;fill-opacity:1;fill-rule:evenodd;stroke:none" id="path2590"/><path d="M 1914,2736.19 L 1911,2754.19 L 1911,2769.19 L 1924,2769.19 L 1924,2754.19 L 1921,2736.19 L 1914,2736.19" style="fill:#000000;fill-opacity:1;fill-rule:evenodd;stroke:none" id="path2592"/><path d="M 1939,2736.19 L 1936,2754.19 L 1936,2769.19 L 1949,2769.19 L 1949,2754.19 L 1946,2736.19 L 1939,2736.19" style="fill:#000000;fill-opacity:1;fill-rule:evenodd;stroke:none" id="path2594"/><path d="M 4030,2752.19 L 4006,2752.19 L 4008,2752.19 L 4010,2751.19 L 4013,2751.19 L 4015,2750.19 L 4017,2749.19 L 4019,2747.19 L 4019,2747.19 L 4021,2745.19 L 4022,2743.19 L 4023,2741.19 L 4024,2738.19 L 4024,2731.19 L 4023,2729.19 L 4022,2727.19 L 4020,2724.19 L 4019,2722.19 L 4019,2722.19 L 4018,2720.19 L 4016,2719.19 L 4015,2717.19 L 4013,2716.19 L 4012,2714.19 L 4010,2712.19 L 4008,2710.19 L 4006,2708.19 L 4003,2706.19 L 4001,2704.19 L 3998,2702.19 L 3996,2700.19 L 3994,2698.19 L 3991,2696.19 L 3989,2694.19 L 3988,2693.19 L 3986,2691.19 L 3984,2689.19 L 3983,2688.19 L 3982,2686.19 L 3980,2684.19 L 3979,2682.19 L 3977,2680.19 L 3976,2677.19 L 3975,2675.19 L 3975,2672.19 L 3974,2670.19 L 3974,2667.19 L 4036,2667.19 L 4036,2678.19 L 3990,2678.19 L 3990,2678.19 L 3991,2680.19 L 3993,2682.19 L 3995,2684.19 L 3996,2685.19 L 3997,2687.19 L 3999,2688.19 L 4001,2690.19 L 4003,2692.19 L 4005,2694.19 L 4008,2696.19 L 4009,2697.19 L 4012,2699.19 L 4014,2701.19 L 4016,2703.19 L 4018,2705.19 L 4020,2707.19 L 4022,2708.19 L 4023,2710.19 L 4025,2711.19 L 4026,2713.19 L 4027,2713.19 L 4028,2716.19 L 4030,2718.19 L 4031,2720.19 L 4033,2722.19 L 4034,2724.19 L 4034,2725.19 L 4035,2728.19 L 4035,2730.19 L 4036,2733.19 L 4036,2738.19 L 4035,2741.19 L 4035,2743.19 L 4034,2746.19 L 4033,2748.19 L 4031,2750.19" style="fill:#000000;fill-opacity:1;fill-rule:evenodd;stroke:none" id="path2596"/><path d="M 4007,2761.19 L 3998,2761.19 L 3996,2760.19 L 3994,2759.19 L 3991,2758.19 L 3989,2757.19 L 3987,2756.19 L 3985,2754.19 L 3984,2753.19 L 3982,2751.19 L 3981,2749.19 L 3980,2747.19 L 3979,2745.19 L 3978,2742.19 L 3977,2740.19 L 3977,2737.19 L 3976,2734.19 L 3988,2733.19 L 3988,2736.19 L 3989,2738.19 L 3989,2741.19 L 3990,2743.19 L 3992,2745.19 L 3993,2747.19 L 3994,2748.19 L 3996,2749.19 L 3999,2750.19 L 4001,2751.19 L 4004,2752.19 L 4030,2752.19 L 4028,2754.19 L 4028,2754.19 L 4026,2756.19 L 4024,2757.19 L 4022,2758.19 L 4020,2759.19 L 4017,2760.19 L 4015,2760.19 L 4012,2761.19 L 4010,2761.19" style="fill:#000000;fill-opacity:1;fill-rule:evenodd;stroke:none" id="path2598"/><path d="M 4051,2728.19 L 4048,2745.19 L 4048,2761.19 L 4061,2761.19 L 4061,2745.19 L 4058,2728.19 L 4051,2728.19" style="fill:#000000;fill-opacity:1;fill-rule:evenodd;stroke:none" id="path2600"/><path d="M 4076,2728.19 L 4073,2745.19 L 4073,2761.19 L 4086,2761.19 L 4086,2745.19 L 4083,2728.19 L 4076,2728.19" style="fill:#000000;fill-opacity:1;fill-rule:evenodd;stroke:none" id="path2602"/><path d="M 3053,1914.19 L 3044,1906.19 L 3077,1859.19 L 3094,1859.19" style="fill:#000000;fill-opacity:1;fill-rule:evenodd;stroke:none" id="path2604"/><path d="M 3092,1952.19 L 3075,1952.19 L 3029,1906.19 L 3029,1891.19 L 3044,1906.19 L 3053,1914.19" style="fill:#000000;fill-opacity:1;fill-rule:evenodd;stroke:none" id="path2606"/><path d="M 3029,1952.19 L 3016,1952.19 L 3016,1859.19 L 3029,1859.19 L 3029,1906.19" style="fill:#000000;fill-opacity:1;fill-rule:evenodd;stroke:none" id="path2608"/><path d="M 3182,2306.19 L 3173,2297.19 L 3206,2250.19 L 3223,2250.19" style="fill:#000000;fill-opacity:1;fill-rule:evenodd;stroke:none" id="path2610"/><path d="M 3221,2344.19 L 3204,2344.19 L 3158,2297.19 L 3158,2283.19 L 3173,2297.19 L 3182,2306.19" style="fill:#000000;fill-opacity:1;fill-rule:evenodd;stroke:none" id="path2612"/><path d="M 3158,2344.19 L 3145,2344.19 L 3145,2250.19 L 3158,2250.19 L 3158,2297.19" style="fill:#000000;fill-opacity:1;fill-rule:evenodd;stroke:none" id="path2614"/><path d="M 3231,2311.19 L 3228,2328.19 L 3228,2344.19 L 3242,2344.19 L 3242,2328.19 L 3239,2311.19 L 3231,2311.19" style="fill:#000000;fill-opacity:1;fill-rule:evenodd;stroke:none" id="path2616"/><path d="M 3281,2727.19 L 3272,2719.19 L 3305,2671.19 L 3322,2671.19" style="fill:#000000;fill-opacity:1;fill-rule:evenodd;stroke:none" id="path2618"/><path d="M 3320,2765.19 L 3303,2765.19 L 3257,2719.19 L 3257,2704.19 L 3272,2719.19 L 3281,2727.19" style="fill:#000000;fill-opacity:1;fill-rule:evenodd;stroke:none" id="path2620"/><path d="M 3257,2765.19 L 3244,2765.19 L 3244,2671.19 L 3257,2671.19 L 3257,2719.19" style="fill:#000000;fill-opacity:1;fill-rule:evenodd;stroke:none" id="path2622"/><path d="M 3330,2732.19 L 3327,2750.19 L 3327,2765.19 L 3341,2765.19 L 3341,2750.19 L 3337,2732.19 L 3330,2732.19" style="fill:#000000;fill-opacity:1;fill-rule:evenodd;stroke:none" id="path2624"/><path d="M 3355,2732.19 L 3352,2750.19 L 3352,2765.19 L 3366,2765.19 L 3366,2750.19 L 3362,2732.19 L 3355,2732.19" style="fill:#000000;fill-opacity:1;fill-rule:evenodd;stroke:none" id="path2626"/><path d="M 2224,2787.19 L 2150,2787.19 L 2150,2776.19 L 2180,2776.19 L 2180,2693.19 L 2193,2693.19 L 2193,2776.19 L 2224,2776.19" style="fill:#000000;fill-opacity:1;fill-rule:evenodd;stroke:none" id="path2628"/><path d="M 2303,2776.19 L 2273,2776.19 L 2278,2776.19 L 2281,2775.19 L 2285,2775.19 L 2287,2774.19 L 2289,2773.19 L 2291,2771.19 L 2292,2769.19 L 2293,2769.19 L 2294,2767.19 L 2295,2764.19 L 2295,2755.19 L 2294,2753.19 L 2293,2750.19 L 2292,2748.19 L 2290,2747.19 L 2290,2747.19 L 2289,2745.19 L 2287,2744.19 L 2285,2744.19 L 2282,2743.19 L 2280,2743.19 L 2277,2742.19 L 2249,2742.19 L 2302,2741.19 L 2303,2743.19 L 2305,2745.19 L 2306,2747.19 L 2307,2749.19 L 2307,2752.19 L 2308,2754.19 L 2308,2765.19 L 2307,2768.19 L 2306,2770.19 L 2305,2772.19 L 2305,2774.19" style="fill:#000000;fill-opacity:1;fill-rule:evenodd;stroke:none" id="path2630"/><path d="M 2272,2787.19 L 2237,2787.19 L 2237,2693.19 L 2249,2693.19 L 2249,2731.19 L 2278,2731.19 L 2281,2732.19 L 2287,2732.19 L 2289,2733.19 L 2292,2734.19 L 2294,2735.19 L 2296,2736.19 L 2298,2737.19 L 2299,2738.19 L 2301,2739.19 L 2302,2741.19 L 2249,2742.19 L 2249,2776.19 L 2303,2776.19 L 2302,2778.19 L 2300,2780.19 L 2298,2781.19 L 2296,2783.19 L 2294,2784.19 L 2292,2785.19 L 2289,2785.19 L 2286,2786.19 L 2281,2786.19 L 2278,2787.19 L 2275,2787.19" style="fill:#000000;fill-opacity:1;fill-rule:evenodd;stroke:none" id="path2632"/></g></g></g></svg>